<?xml version="1.0" standalone="no"?>
<!DOCTYPE svg PUBLIC "-//W3C//DTD SVG 20010904//EN"
 "http://www.w3.org/TR/2001/REC-SVG-20010904/DTD/svg10.dtd">
<svg version="1.0" xmlns="http://www.w3.org/2000/svg"
 width="200pt" height="200pt" viewBox="0 0 1280.000000 862.000000"
 preserveAspectRatio="xMidYMid meet">
<metadata>
Created by potrace 1.15, written by Peter Selinger 2001-2017
</metadata>
<g transform="translate(0.000000,862.000000) scale(0.100000,-0.100000)"
fill="#000000" stroke="none">
<path d="M7632 8604 c-12 -8 -34 -38 -47 -65 -27 -53 -63 -72 -91 -48 -22 18
-14 62 14 74 26 12 30 45 4 45 -50 0 -81 -57 -62 -116 13 -39 35 -54 79 -54
36 0 62 23 91 80 27 53 60 69 95 46 15 -10 25 -26 25 -40 0 -24 -28 -56 -48
-56 -7 0 -12 -9 -12 -20 0 -28 35 -26 65 5 19 18 25 35 25 70 0 35 -6 52 -25
70 -28 29 -79 33 -113 9z"/>
<path d="M5795 8565 c-22 -8 -41 -15 -42 -15 -2 0 -13 -19 -25 -42 -20 -37
-23 -58 -23 -148 1 -150 31 -200 128 -207 65 -5 111 20 135 75 24 54 23 224
-2 274 -31 64 -98 89 -171 63z m92 -82 c14 -21 18 -48 18 -113 0 -47 -3 -97
-8 -112 -14 -52 -74 -60 -99 -15 -8 14 -13 62 -13 123 0 86 3 105 19 123 27
29 62 27 83 -6z"/>
<path d="M6135 8565 c-22 -8 -41 -15 -42 -15 -2 0 -13 -19 -25 -42 -20 -37
-23 -58 -23 -153 0 -85 4 -117 18 -142 45 -83 190 -85 232 -3 8 16 15 38 15
50 0 16 -6 20 -36 20 -30 0 -37 -4 -46 -30 -14 -41 -54 -52 -79 -21 -36 44
-37 225 -2 263 29 33 83 17 83 -24 0 -14 8 -18 40 -18 33 0 40 3 40 20 0 78
-89 127 -175 95z"/>
<path d="M7113 8569 c-71 -21 -112 -122 -99 -247 13 -129 57 -176 155 -169 46
3 59 9 82 35 39 43 52 101 47 202 -7 125 -38 172 -118 184 -19 3 -49 1 -67 -5z
m94 -99 c15 -43 16 -153 3 -201 -13 -46 -33 -63 -64 -55 -35 9 -51 58 -51 157
1 107 18 142 68 137 26 -2 34 -9 44 -38z"/>
<path d="M5171 8533 c-21 -82 -91 -362 -91 -368 0 -3 18 -5 39 -5 38 0 39 0
47 48 l9 47 52 3 c55 3 54 5 68 -65 6 -31 10 -33 46 -33 25 0 39 5 39 13 0 6
-22 98 -48 202 l-48 190 -52 3 -51 3 -10 -38z m78 -120 c6 -37 12 -72 11 -77
0 -11 -60 -13 -61 -3 -2 21 26 155 31 152 4 -2 12 -35 19 -72z"/>
<path d="M5370 8559 c0 -7 23 -99 52 -205 l51 -194 48 0 47 0 22 83 c13 45 38
137 56 205 l33 122 -42 0 -42 0 -35 -161 c-21 -97 -37 -153 -41 -142 -4 10
-17 65 -29 123 -39 189 -35 180 -80 180 -23 0 -40 -5 -40 -11z"/>
<path d="M6396 8383 c-26 -104 -49 -196 -52 -205 -4 -15 1 -18 35 -18 37 0 40
2 46 33 14 70 13 68 68 65 l52 -3 9 -47 8 -48 43 0 42 0 -51 205 -51 205 -51
0 -52 0 -46 -187z m126 -32 c3 -21 -1 -24 -30 -25 -36 -1 -37 3 -22 74 22 100
22 99 36 35 7 -33 14 -71 16 -84z"/>
<path d="M6690 8365 l0 -205 83 0 c139 0 178 41 185 195 3 79 1 96 -20 135
-31 61 -71 80 -170 80 l-78 0 0 -205z m155 123 c20 -18 27 -35 32 -79 12 -120
-16 -189 -77 -189 l-30 0 0 145 0 145 24 0 c14 0 37 -10 51 -22z"/>
<path d="M4737 8510 c-14 -11 -35 -41 -48 -68 -29 -62 -47 -82 -74 -82 -51 0
-59 74 -10 86 21 5 25 12 25 40 0 29 -3 34 -24 34 -59 0 -105 -81 -86 -151 14
-50 51 -81 98 -83 53 -1 83 22 121 94 38 71 69 90 107 65 13 -8 24 -24 24 -35
0 -21 -33 -60 -50 -60 -5 0 -10 -18 -10 -40 0 -45 -1 -45 44 -26 48 20 66 51
66 114 0 90 -35 131 -111 132 -31 0 -55 -6 -72 -20z"/>
<path d="M7450 8315 c0 -76 3 -95 14 -95 10 0 16 13 18 38 l3 37 140 2 c134 1
140 2 143 22 3 20 0 21 -142 21 l-146 0 0 35 c0 24 -5 35 -15 35 -12 0 -15
-17 -15 -95z"/>
<path d="M4860 8165 l0 -75 -60 0 -59 0 -3 68 c-3 64 -4 67 -28 67 -24 0 -25
-3 -28 -67 l-3 -68 -49 0 -50 0 0 70 0 70 -30 0 -30 0 0 -110 0 -110 198 2
197 3 3 104 c3 108 -1 121 -40 121 -16 0 -18 -10 -18 -75z"/>
<path d="M7493 8184 c-39 -20 -59 -63 -47 -106 14 -46 54 -71 124 -76 131 -10
200 22 200 93 0 49 -15 74 -55 91 -47 19 -181 18 -222 -2z m226 -48 c48 -43 9
-84 -86 -93 -81 -7 -141 10 -149 44 -14 55 21 73 137 70 60 -2 82 -6 98 -21z"/>
<path d="M5321 8002 c-24 -12 -45 -36 -69 -80 -40 -73 -70 -92 -108 -67 -36
23 -33 71 6 93 20 11 30 25 30 41 0 20 -3 22 -27 17 -46 -11 -73 -50 -73 -106
0 -65 28 -99 88 -107 40 -5 45 -3 82 36 22 23 40 48 40 56 0 7 12 27 26 44 20
25 34 31 64 31 47 0 62 -18 58 -67 -2 -32 -8 -40 -35 -53 -22 -10 -33 -22 -33
-37 0 -27 19 -29 60 -8 38 20 50 43 50 100 0 60 -22 100 -61 114 -43 15 -58
14 -98 -7z"/>
<path d="M5600 7845 l0 -175 89 0 c86 0 89 1 93 25 3 13 3 27 0 30 -3 3 -32 5
-64 5 l-59 0 3 48 3 47 53 3 c48 3 52 5 52 28 0 23 -3 24 -55 24 l-55 0 0 40
0 39 58 3 c54 3 57 4 60 31 l3 27 -90 0 -91 0 0 -175z"/>
<path d="M5825 8008 c-3 -8 -4 -86 -3 -173 l3 -160 28 -3 27 -3 1 123 0 123
43 -120 43 -120 34 0 34 0 0 170 0 170 -27 3 -27 3 -3 -111 -3 -111 -40 108
c-39 105 -41 108 -73 111 -20 2 -34 -2 -37 -10z"/>
<path d="M6084 8005 c-13 -33 4 -45 61 -45 30 0 55 -2 55 -5 0 -2 -30 -58 -66
-125 -36 -66 -64 -128 -62 -138 3 -14 18 -17 97 -20 98 -3 111 2 111 41 0 14
-10 17 -65 17 -36 0 -65 1 -65 3 0 2 27 54 60 115 35 66 60 125 60 142 l0 30
-90 0 c-71 0 -92 -3 -96 -15z"/>
<path d="M6300 8015 c0 -3 20 -56 45 -116 36 -88 45 -122 45 -170 0 -60 0 -60
28 -57 26 3 27 5 32 78 4 55 16 99 43 164 20 50 37 94 37 98 0 4 -13 8 -29 8
-27 0 -31 -5 -52 -67 -12 -38 -24 -72 -27 -77 -3 -5 -17 24 -31 65 -25 70 -28
74 -58 77 -18 2 -33 0 -33 -3z"/>
<path d="M6560 7844 l0 -175 28 3 27 3 -1 135 c-1 149 5 143 31 -27 18 -113
18 -113 45 -113 28 0 28 2 45 98 31 173 33 176 34 35 l1 -133 30 0 30 0 0 175
0 175 -44 0 c-51 0 -46 9 -72 -132 -10 -54 -19 -97 -20 -95 -1 1 -10 45 -19
97 -23 136 -19 130 -71 130 l-44 0 0 -176z"/>
<path d="M6890 7845 l0 -176 88 3 c87 3 87 3 90 31 3 27 3 27 -57 27 l-61 0 0
50 0 50 55 0 c52 0 55 1 55 25 0 24 -3 25 -55 25 l-55 0 0 40 0 39 58 3 c53 3
57 5 57 28 0 25 -2 25 -87 28 l-88 3 0 -176z"/>
<path d="M7135 7995 c-27 -26 -34 -80 -15 -116 6 -11 35 -33 65 -50 58 -33 78
-67 55 -94 -20 -24 -59 -19 -72 10 -8 18 -19 25 -40 25 -38 0 -38 -32 1 -71
63 -62 182 -21 181 63 -1 49 -21 78 -81 113 -46 27 -54 36 -54 61 0 24 4 30
28 32 22 3 30 -1 34 -17 8 -30 63 -30 63 -1 0 38 -44 70 -95 70 -35 0 -52 -6
-70 -25z"/>
<path d="M4860 7901 l0 -71 -170 0 -170 0 0 -40 0 -40 198 2 197 3 0 105 0
105 -27 3 -28 3 0 -70z"/>
<path d="M1841 7900 l-103 -50 -64 45 c-34 25 -65 45 -68 45 -3 0 -6 -10 -6
-22 0 -17 21 -37 83 -78 l82 -55 -82 -3 c-75 -3 -83 -5 -83 -22 0 -19 8 -20
175 -20 168 0 175 1 175 20 0 18 -7 20 -56 20 -50 0 -115 23 -114 40 1 3 35
20 78 39 93 42 95 43 90 70 -3 19 -9 18 -107 -29z"/>
<path d="M7470 7930 c-16 -16 -20 -33 -20 -90 l0 -70 160 0 c152 0 160 1 160
20 0 17 -8 19 -72 22 -72 3 -73 3 -76 31 -6 47 21 67 90 67 51 0 58 2 58 20 0
18 -7 20 -63 20 -37 0 -71 -6 -83 -14 -17 -12 -22 -12 -39 0 -28 21 -91 18
-115 -6z m105 -36 c10 -10 15 -29 13 -48 -3 -30 -5 -31 -55 -34 l-53 -3 0 31
c0 47 16 70 50 70 16 0 36 -7 45 -16z"/>
<path d="M5080 7694 l0 -25 149 3 c82 2 147 1 145 -2 -3 -3 -69 -32 -147 -66
-137 -59 -142 -62 -145 -92 l-3 -32 200 0 201 0 0 26 0 25 -160 -3 c-87 -2
-156 0 -152 3 4 3 65 30 137 59 185 75 175 69 175 102 l0 28 -200 0 -200 0 0
-26z"/>
<path d="M7475 7695 c-22 -21 -25 -33 -25 -90 l0 -65 160 0 c153 0 160 1 160
20 0 18 -7 20 -75 20 l-75 0 0 28 c0 47 18 61 85 64 53 3 60 6 63 24 3 21 0
22 -65 17 -37 -3 -75 -11 -83 -18 -12 -11 -19 -10 -39 6 -32 26 -77 24 -106
-6z m103 -37 c6 -6 12 -26 12 -44 l0 -34 -55 0 -55 0 0 34 c0 56 53 80 98 44z"/>
<path d="M1910 7640 l0 -60 -155 0 c-148 0 -155 -1 -155 -20 0 -19 7 -20 175
-20 l175 0 0 80 c0 73 -2 80 -20 80 -18 0 -20 -7 -20 -60z"/>
<path d="M4754 7690 c-12 -5 -29 -19 -38 -31 -13 -19 -16 -20 -21 -7 -9 23
-59 41 -93 33 -16 -3 -40 -17 -53 -31 -21 -23 -24 -37 -27 -120 l-4 -94 199 2
198 3 3 70 c6 142 -63 216 -164 175z m94 -82 c7 -7 12 -29 12 -50 l0 -38 -66
0 -67 0 6 36 c3 20 11 42 18 50 14 17 80 19 97 2z m-178 -17 c5 -11 10 -31 10
-45 0 -24 -3 -26 -50 -26 -50 0 -50 0 -50 33 0 18 5 38 12 45 19 19 66 15 78
-7z"/>
<path d="M10097 7680 c-15 -12 -39 -44 -52 -71 -14 -26 -34 -53 -46 -59 -30
-17 -68 -4 -75 25 -8 34 1 54 31 65 15 6 25 17 25 30 0 30 -36 25 -71 -9 -73
-73 2 -194 99 -160 22 8 41 26 59 58 37 65 63 91 90 91 43 0 63 -18 63 -56 0
-28 -6 -38 -30 -52 -34 -19 -44 -66 -12 -56 65 21 88 58 79 126 -7 53 -34 79
-88 85 -35 4 -50 0 -72 -17z"/>
<path d="M9494 7666 c-43 -19 -78 -59 -120 -138 -37 -71 -56 -88 -98 -88 -73
0 -75 108 -1 122 17 3 21 12 23 57 l3 53 -33 -7 c-42 -9 -79 -28 -100 -51 -24
-27 -39 -97 -32 -143 14 -87 68 -131 159 -131 80 0 123 35 179 147 31 62 58
83 107 83 89 0 95 -119 6 -140 -19 -5 -22 -14 -25 -59 l-3 -53 38 7 c54 10 98
40 117 79 24 51 21 149 -6 197 -38 68 -138 98 -214 65z"/>
<path d="M7099 7527 c-22 -15 -39 -38 -49 -65 -13 -37 -13 -47 0 -84 15 -43
23 -50 141 -123 38 -23 52 -63 35 -96 -22 -44 -88 -37 -104 11 -10 27 -15 30
-51 30 -46 0 -50 -9 -27 -65 41 -98 215 -101 263 -5 7 14 13 46 13 71 0 61
-30 103 -100 141 -73 40 -90 56 -90 88 0 34 17 50 53 50 22 0 30 -6 38 -30 10
-26 16 -30 50 -30 33 0 39 3 39 20 0 34 -28 79 -60 95 -44 23 -111 19 -151 -8z"/>
<path d="M5610 7305 l0 -235 45 0 45 0 0 95 0 95 40 0 c95 0 150 51 150 137 0
112 -40 143 -185 143 l-95 0 0 -235z m184 143 c38 -53 5 -118 -59 -118 l-35 0
0 70 0 70 39 0 c30 0 44 -6 55 -22z"/>
<path d="M5950 7305 l0 -235 120 0 c89 0 120 3 120 13 0 6 3 22 6 34 6 21 3
22 -75 25 l-82 3 0 198 0 197 -44 0 -45 0 0 -235z"/>
<path d="M6230 7355 c0 -197 6 -231 49 -269 30 -27 127 -34 172 -12 60 28 63
40 69 264 l5 202 -42 0 -42 0 -3 -191 c-3 -175 -5 -192 -22 -205 -27 -19 -60
-18 -79 4 -14 15 -16 48 -17 205 l-2 187 -44 0 -44 0 0 -185z"/>
<path d="M6608 7305 l-3 -235 38 0 37 0 1 193 1 192 32 -190 31 -190 40 -3 40
-3 35 193 35 193 3 -192 2 -193 40 0 40 0 0 235 0 235 -64 0 -64 0 -26 -142
c-15 -79 -30 -150 -33 -158 -3 -8 -17 55 -32 140 l-26 155 -62 3 -62 3 -3
-236z"/>
<path d="M2070 7310 l0 -220 40 0 40 0 0 95 0 95 34 0 c47 0 60 -21 66 -109
l5 -76 39 -3 39 -3 -7 88 c-5 65 -12 95 -26 116 -12 15 -16 27 -11 27 17 0 41
56 41 95 0 47 -22 88 -55 103 -14 7 -66 12 -115 12 l-90 0 0 -220z m164 144
c19 -18 21 -75 4 -92 -7 -7 -29 -12 -50 -12 l-38 0 0 60 0 60 34 0 c19 0 42
-7 50 -16z"/>
<path d="M2390 7310 l0 -220 115 0 c107 0 115 1 115 19 0 11 3 26 6 35 5 14
-5 16 -75 16 l-81 0 0 65 0 65 70 0 70 0 0 35 0 35 -70 0 -70 0 0 50 0 49 73
3 72 3 3 33 3 32 -115 0 -116 0 0 -220z"/>
<path d="M2680 7310 l0 -220 68 0 c92 1 144 25 173 82 19 36 23 59 23 143 1
170 -37 215 -181 215 l-83 0 0 -220z m154 137 c29 -29 41 -101 31 -181 -9 -69
-35 -106 -76 -106 l-29 0 0 155 0 155 25 0 c14 0 36 -11 49 -23z"/>
<path d="M3130 7310 l0 -220 35 0 35 0 1 183 1 182 29 -170 c16 -93 31 -176
34 -183 3 -8 17 -12 37 -10 36 3 34 -2 77 238 l19 105 1 -172 1 -173 40 0 40
0 0 220 0 220 -59 0 c-53 0 -59 -2 -64 -22 -3 -13 -16 -78 -28 -145 -13 -67
-24 -121 -26 -119 -2 1 -12 56 -23 122 -31 182 -21 164 -90 164 l-60 0 0 -220z"/>
<path d="M3552 7313 l3 -218 111 -3 c109 -3 112 -2 118 20 12 47 10 48 -74 48
l-80 0 0 65 0 65 70 0 70 0 0 35 0 35 -70 0 -70 0 0 50 0 49 73 3 72 3 3 33 3
32 -116 0 -115 0 2 -217z"/>
<path d="M3920 7526 c0 -3 -59 -261 -95 -413 -5 -21 -2 -23 34 -23 l40 0 11
55 11 55 53 0 52 0 10 -52 9 -53 40 0 c25 0 39 4 38 12 -1 6 -24 104 -50 217
l-47 206 -53 0 c-29 0 -53 -2 -53 -4z m85 -233 c5 -21 2 -23 -30 -23 -40 0
-40 2 -25 82 22 107 22 108 36 33 7 -38 16 -80 19 -92z"/>
<path d="M4100 7495 c0 -35 0 -35 45 -35 l45 0 0 -185 0 -185 40 0 40 0 0 184
0 185 48 3 c45 3 47 4 50 36 l3 32 -135 0 -136 0 0 -35z"/>
<path d="M7603 7458 c-151 -41 -153 -41 -153 -69 0 -24 5 -30 38 -38 20 -5 89
-24 154 -40 64 -17 119 -31 122 -31 3 0 6 9 6 19 0 20 -8 24 -67 36 -31 6 -33
9 -33 50 0 44 0 44 48 58 35 10 48 19 50 35 2 12 0 22 -5 21 -4 0 -77 -19
-160 -41z m29 -68 c3 -17 2 -32 -1 -34 -3 -2 -35 5 -71 14 l-65 17 45 12 c25
7 50 14 55 16 25 9 33 3 37 -25z"/>
<path d="M1600 7445 l0 -25 175 0 175 0 0 25 0 25 -175 0 -175 0 0 -25z"/>
<path d="M9890 7361 c0 -104 1 -111 20 -111 17 0 20 7 20 40 l0 40 163 2 c154
3 162 4 162 23 0 19 -8 20 -162 23 l-162 2 -3 43 c-2 30 -8 43 -20 45 -16 3
-18 -7 -18 -107z"/>
<path d="M5345 7399 c-296 -79 -265 -67 -265 -105 0 -30 4 -34 38 -43 292 -75
354 -91 358 -91 13 0 1 49 -13 54 -10 3 -37 10 -60 16 l-43 11 0 53 0 54 58
14 c50 12 57 17 60 41 4 33 6 33 -133 -4z m-37 -145 c-2 -2 -28 3 -58 10 -30
8 -68 17 -85 21 -27 7 -21 10 55 29 l85 22 3 -39 c2 -21 2 -41 0 -43z"/>
<path d="M4698 7353 l-178 -45 0 -49 c0 -56 -28 -42 220 -104 80 -20 153 -38
163 -41 16 -5 18 -1 15 33 -3 36 -5 39 -48 49 l-45 11 -3 51 c-2 38 1 52 10
52 7 0 30 5 51 11 34 9 37 13 37 44 0 45 1 45 -222 -12z m62 -92 c0 -17 -3
-32 -7 -34 -5 -2 -44 4 -88 13 l-80 17 60 12 c33 7 65 14 70 16 32 11 45 4 45
-24z"/>
<path d="M1602 7318 l3 -33 135 -31 135 -31 -60 -13 c-211 -43 -210 -43 -213
-78 l-3 -32 175 0 c172 0 176 0 176 21 0 20 -3 21 -145 17 -79 -1 -141 0 -137
3 4 3 63 16 132 29 153 28 152 28 148 53 -3 19 -20 25 -143 52 l-140 30 143 3
c134 2 142 4 142 22 0 19 -7 20 -176 20 l-175 0 3 -32z"/>
<path d="M9639 7271 c0 -3 0 -50 1 -103 l1 -98 -85 0 -85 0 -3 93 -3 92 -42 3
-43 3 0 -95 0 -96 -75 0 -75 0 0 95 0 95 -45 0 -45 0 0 -145 0 -145 293 0 292
0 -2 147 -2 148 -40 6 c-23 3 -41 3 -42 0z"/>
<path d="M7472 7230 c-43 -41 -39 -107 10 -143 29 -22 141 -34 203 -23 54 10
85 46 85 96 0 46 -34 90 -70 90 -27 0 -26 -32 2 -45 56 -26 48 -71 -18 -93
-52 -18 -158 -10 -184 13 -30 27 -25 62 10 80 17 9 30 22 30 30 0 22 -42 18
-68 -5z"/>
<path d="M9890 7126 l0 -96 183 2 182 3 0 90 c0 77 -2 90 -17 93 -14 3 -18 -7
-20 -65 l-3 -68 -67 -3 -68 -3 0 66 c0 58 -2 65 -20 65 -18 0 -20 -7 -20 -65
l0 -65 -55 0 -54 0 -3 67 c-2 55 -6 68 -20 71 -16 3 -18 -6 -18 -92z"/>
<path d="M4520 7010 l0 -130 30 0 c29 0 30 2 30 45 l0 45 171 0 170 0 -3 38
-3 37 -167 3 -168 2 0 45 c0 43 -1 45 -30 45 l-30 0 0 -130z"/>
<path d="M5153 7123 c-12 -2 -33 -16 -47 -30 -34 -34 -36 -107 -4 -148 33 -42
76 -55 183 -55 147 0 195 30 195 120 0 54 -20 87 -66 106 -44 19 -44 19 -44
-16 0 -22 5 -30 18 -30 26 0 52 -32 52 -63 0 -41 -38 -60 -134 -65 -139 -7
-199 24 -182 93 5 18 15 27 36 32 25 4 30 10 30 34 0 16 -3 28 -7 28 -5 -1
-18 -4 -30 -6z"/>
<path d="M10220 6922 c0 -38 -2 -71 -4 -73 -2 -2 -34 -2 -70 -1 l-66 4 0 59
c0 52 -2 59 -20 59 -18 0 -20 -7 -20 -59 l0 -59 -55 -4 -55 -3 0 68 c0 60 -2
67 -20 67 -19 0 -20 -7 -20 -90 l0 -90 185 0 185 0 0 85 c0 74 -2 86 -20 95
-19 10 -20 8 -20 -58z"/>
<path d="M11460 6933 c-52 -27 -73 -72 -78 -167 -8 -145 29 -216 110 -216 24
0 54 7 66 16 20 14 22 14 22 0 0 -10 9 -16 25 -16 l25 0 0 110 0 110 -60 0
-60 0 0 -30 c0 -25 4 -30 25 -30 22 0 25 -4 25 -40 0 -31 -5 -43 -24 -55 -26
-17 -52 -12 -65 14 -32 59 -18 231 20 252 27 14 54 4 67 -26 9 -19 19 -25 42
-25 25 0 30 4 30 25 0 14 -12 38 -27 55 -36 39 -94 48 -143 23z"/>
<path d="M11775 6936 c-61 -27 -85 -81 -85 -191 0 -84 13 -130 48 -167 22 -24
34 -28 79 -28 100 0 133 50 133 198 0 110 -22 166 -74 187 -43 18 -62 18 -101
1z m79 -65 c21 -23 31 -109 22 -185 -6 -44 -13 -60 -31 -72 -54 -35 -81 18
-79 153 2 107 42 154 88 104z"/>
<path d="M12333 6936 c-33 -15 -63 -60 -63 -96 0 -42 29 -76 89 -109 66 -35
86 -60 77 -96 -11 -45 -79 -44 -96 1 -8 19 -17 24 -46 24 -34 0 -36 -1 -30
-27 4 -16 20 -40 37 -55 25 -24 38 -28 90 -28 54 0 64 3 90 29 24 24 29 38 29
75 0 55 -30 94 -105 134 -45 25 -50 30 -50 62 0 32 2 35 30 35 22 0 33 -6 40
-22 7 -17 18 -23 42 -23 36 0 41 12 22 53 -21 47 -99 68 -156 43z"/>
<path d="M3783 6921 c-18 -11 -39 -34 -47 -50 -26 -49 -39 -167 -28 -248 18
-129 55 -173 146 -173 93 0 136 77 136 245 0 106 -19 181 -54 215 -36 32 -110
38 -153 11z m112 -55 c29 -30 39 -87 33 -211 -3 -76 -8 -100 -25 -122 -38 -52
-93 -43 -117 18 -20 49 -23 228 -6 275 26 66 72 83 115 40z"/>
<path d="M10390 6745 l0 -195 36 0 37 0 -5 155 c-3 86 -4 154 -2 152 4 -3 54
-283 54 -299 0 -5 15 -8 34 -8 l34 0 30 153 30 152 1 -152 1 -153 35 0 35 0 0
195 0 195 -53 0 -54 0 -16 -77 c-9 -43 -19 -97 -23 -121 -10 -65 -21 -59 -32
21 -6 39 -16 96 -22 125 l-12 52 -54 0 -54 0 0 -195z"/>
<path d="M10801 6768 c-23 -95 -44 -183 -47 -195 -6 -21 -3 -23 29 -23 37 0
39 2 52 68 6 31 8 32 55 32 l48 0 8 -47 c9 -46 10 -48 47 -51 22 -2 37 1 37 8
0 6 -21 94 -46 195 l-46 185 -48 0 -48 0 -41 -172z m108 18 c15 -79 15 -76
-19 -76 -16 0 -30 5 -30 11 0 32 24 138 30 132 4 -5 12 -35 19 -67z"/>
<path d="M11070 6745 l0 -196 31 3 31 3 -1 138 c-1 75 0 137 3 137 2 0 11 -21
20 -47 9 -27 33 -90 52 -140 l36 -93 39 0 39 0 0 195 0 195 -37 0 -36 0 6
-132 c3 -73 4 -128 1 -123 -2 6 -26 64 -52 130 l-48 120 -42 3 -42 3 0 -196z"/>
<path d="M12010 6745 l0 -195 104 0 c85 0 105 3 110 16 15 38 8 43 -66 46
l-73 3 0 55 0 55 65 1 c65 1 65 1 65 30 0 29 0 29 -67 32 l-68 3 0 44 0 45 70
0 70 0 0 30 0 30 -105 0 -105 0 0 -195z"/>
<path d="M1040 6918 c0 -14 79 -424 86 -450 4 -12 15 -18 34 -18 27 0 29 4 41
58 60 289 67 316 72 292 4 -14 21 -98 38 -188 l32 -163 31 3 30 3 48 225 c26
124 48 231 48 238 0 7 -12 12 -28 12 l-28 0 -34 -190 c-18 -104 -35 -189 -36
-187 -1 1 -14 65 -29 142 -47 249 -43 235 -76 235 -16 0 -29 -1 -29 -2 -1 -15
-79 -380 -79 -371 -1 7 -14 91 -31 188 -16 97 -30 178 -30 180 0 3 -13 5 -30
5 -17 0 -30 -5 -30 -12z"/>
<path d="M1610 6924 c0 -3 -25 -108 -55 -235 -30 -126 -55 -232 -55 -234 0 -3
13 -5 28 -5 27 0 30 4 41 58 22 100 15 93 84 90 l60 -3 16 -70 c16 -68 17 -70
49 -73 29 -3 33 -1 28 15 -3 10 -26 101 -51 203 -25 102 -50 202 -56 223 -9
35 -12 37 -49 37 -22 0 -40 -2 -40 -6z m63 -146 c9 -46 20 -93 23 -105 6 -22
3 -23 -46 -23 -42 0 -51 3 -46 15 3 8 13 55 23 105 9 49 19 90 23 90 3 0 13
-37 23 -82z"/>
<path d="M1780 6905 c0 -23 3 -25 50 -25 l50 0 2 -212 3 -213 28 -3 27 -3 0
215 0 216 55 0 c52 0 55 1 55 25 l0 25 -135 0 -135 0 0 -25z"/>
<path d="M2100 6690 l0 -240 115 0 115 0 0 25 c0 25 -1 25 -85 25 l-85 0 0 90
0 90 80 0 c79 0 80 0 80 25 0 25 -1 25 -80 25 l-80 0 0 75 0 74 83 3 c76 3 82
5 85 26 3 22 2 22 -112 22 l-116 0 0 -240z"/>
<path d="M2392 6693 l3 -238 28 -3 27 -3 0 110 0 111 49 0 c62 0 81 -22 81
-95 0 -27 3 -67 6 -87 6 -33 10 -38 34 -38 l27 0 -5 93 c-5 91 -22 147 -44
147 -7 0 1 13 16 29 51 53 45 147 -12 191 -21 17 -40 20 -119 20 l-93 0 2
-237z m182 165 c24 -34 20 -85 -9 -113 -18 -19 -35 -25 -70 -25 l-45 0 0 80 0
80 54 0 c45 0 58 -4 70 -22z"/>
<path d="M2722 6693 l3 -238 28 -3 27 -3 1 203 0 203 39 -190 c22 -104 42
-196 45 -202 2 -7 15 -13 29 -13 23 0 26 7 49 108 14 59 33 145 43 192 9 47
20 88 23 92 3 4 6 -82 6 -190 l0 -197 28 -3 27 -3 0 240 0 241 -44 0 -44 0
-32 -137 c-18 -76 -37 -160 -44 -187 l-12 -48 -37 178 c-21 98 -40 181 -43
186 -3 4 -25 8 -50 8 l-44 0 2 -237z"/>
<path d="M3162 6693 l3 -238 113 -3 c66 -1 112 1 112 7 0 5 3 16 6 25 5 13 -8
16 -83 18 l-88 3 -3 88 -3 87 81 0 c79 0 80 0 80 25 0 25 -1 25 -80 25 l-80 0
0 75 0 75 85 0 c84 0 85 0 85 25 l0 25 -115 0 -115 0 2 -237z"/>
<path d="M3460 6690 l0 -240 109 0 c108 0 109 0 113 25 l5 25 -83 0 -84 0 0
215 0 215 -30 0 -30 0 0 -240z"/>
<path d="M4070 6691 l0 -241 25 0 25 0 2 194 3 195 75 -195 74 -194 33 0 33 0
0 240 0 240 -25 0 -25 0 -2 -182 -3 -182 -71 180 -72 179 -36 3 -36 3 0 -240z"/>
<path d="M775 6913 c-28 -7 -64 -42 -86 -84 -26 -51 -46 -69 -78 -69 -35 0
-51 17 -51 53 0 23 6 31 30 40 21 8 30 18 30 34 0 31 -30 30 -69 -3 -26 -22
-31 -33 -31 -71 0 -36 6 -50 29 -74 51 -50 121 -36 162 34 36 61 74 97 103 97
31 0 66 -32 66 -60 0 -23 -33 -60 -55 -60 -9 0 -15 -9 -15 -25 0 -33 29 -33
68 0 60 50 47 151 -22 180 -36 15 -46 16 -81 8z"/>
<path d="M9400 6785 l0 -96 43 3 c41 3 42 4 45 42 l3 38 61 -4 c48 -4 65 -9
79 -27 25 -31 24 -57 -5 -86 -29 -29 -101 -39 -235 -33 -128 6 -171 29 -171
88 0 24 38 60 62 60 15 0 18 8 18 50 0 47 -1 50 -26 50 -36 0 -98 -36 -116
-68 -23 -40 -30 -97 -18 -141 25 -94 106 -140 261 -148 159 -9 282 26 315 89
8 15 14 51 14 81 0 43 -5 59 -24 80 -24 25 -24 26 -3 29 17 2 20 10 20 43 l0
40 -161 3 -162 2 0 -95z"/>
<path d="M4860 6776 l0 -76 -60 0 -60 0 0 70 0 70 -30 0 -30 0 0 -70 0 -70
-50 0 -50 0 0 70 0 70 -30 0 -30 0 0 -105 0 -105 190 0 c105 0 193 0 198 0 4
0 7 48 7 108 l0 107 -27 3 -28 3 0 -75z"/>
<path d="M5080 6741 l0 -101 200 0 200 0 0 100 c0 93 -1 100 -20 100 -18 0
-20 -7 -20 -75 l0 -75 -75 0 -75 0 0 70 c0 63 -2 70 -20 70 -18 0 -20 -7 -20
-70 l0 -71 -62 3 -63 3 -1 70 c-1 63 -3 70 -23 73 -20 3 -21 0 -21 -97z"/>
<path d="M10076 6715 c-23 -25 -23 -25 -41 -5 -27 29 -89 27 -120 -5 -22 -21
-25 -33 -25 -100 l0 -75 183 2 182 3 -1 75 c-2 70 -4 76 -33 102 -43 38 -111
40 -145 3z m127 -47 c9 -11 17 -35 17 -54 l0 -34 -70 0 -70 0 0 38 c0 39 14
66 40 75 25 9 64 -2 83 -25z m-175 -6 c6 -9 12 -31 12 -49 l0 -33 -60 0 c-57
0 -60 1 -60 24 0 42 18 74 42 78 30 5 50 -1 66 -20z"/>
<path d="M870 6605 l0 -65 -172 -2 c-171 -3 -173 -3 -176 -25 l-3 -23 195 0
196 0 0 90 c0 83 -1 90 -20 90 -18 0 -20 -7 -20 -65z"/>
<path d="M5118 6551 c-32 -28 -33 -33 -37 -115 l-3 -86 202 0 201 0 -3 28 c-3
27 -4 27 -84 30 l-82 3 -4 56 c-4 48 -10 61 -37 85 -45 40 -108 40 -153 -1z
m127 -46 c17 -16 25 -35 25 -60 l0 -35 -75 0 -75 0 0 35 c0 43 37 85 75 85 14
0 37 -11 50 -25z"/>
<path d="M4594 6553 c-31 -6 -64 -46 -74 -88 -25 -113 73 -184 236 -172 115 9
164 45 164 122 0 22 -7 51 -16 63 -14 20 -14 22 0 22 11 0 16 10 16 30 l0 31
-112 -3 -113 -3 -3 -62 -3 -63 34 0 c31 0 34 2 29 25 -4 23 -1 25 32 25 54 0
76 -15 76 -51 0 -25 -6 -33 -35 -45 -70 -29 -224 -12 -246 27 -12 24 11 69 36
69 11 0 15 11 15 40 0 22 -3 39 -7 39 -5 -1 -18 -4 -29 -6z"/>
<path d="M9142 6383 l3 -48 200 2 199 1 -202 -75 -202 -75 0 -59 0 -59 291 2
292 3 1 43 1 42 -210 1 -210 0 50 20 c28 10 122 45 209 76 l159 58 0 55 0 55
-292 3 -292 2 3 -47z"/>
<path d="M522 6388 c3 -23 4 -23 196 -26 l192 -2 0 25 0 25 -196 0 -195 0 3
-22z"/>
<path d="M10274 6376 c-70 -31 -98 -104 -92 -241 5 -115 25 -160 82 -186 23
-10 52 -19 66 -19 14 0 43 9 66 19 64 29 79 70 79 216 0 107 -2 124 -23 156
-14 24 -37 43 -62 53 -48 19 -75 20 -116 2z m103 -83 c14 -22 18 -47 17 -128
-1 -116 -12 -152 -50 -161 -22 -6 -32 -2 -49 18 -48 55 -41 257 9 290 23 16
56 7 73 -19z"/>
<path d="M11664 6376 c-40 -18 -71 -58 -85 -110 -17 -61 -6 -217 17 -257 42
-72 112 -94 188 -60 67 29 88 80 88 211 0 109 -21 176 -64 204 -35 23 -107 29
-144 12z m103 -83 c14 -22 18 -49 18 -133 0 -118 -15 -160 -59 -160 -44 0 -61
33 -65 132 -4 102 3 151 25 173 24 24 61 19 81 -12z"/>
<path d="M12321 6377 c-48 -17 -76 -59 -76 -112 0 -53 27 -85 100 -122 69 -35
85 -51 85 -88 0 -40 -16 -55 -58 -55 -28 0 -36 5 -45 30 -10 27 -16 30 -54 30
-47 0 -50 -5 -29 -55 18 -43 66 -69 131 -69 96 0 152 56 142 141 -6 55 -33 85
-112 125 -68 35 -75 42 -75 81 0 52 74 57 92 6 9 -25 15 -29 49 -29 45 0 49
12 23 65 -10 23 -28 39 -55 49 -46 19 -71 19 -118 3z"/>
<path d="M9870 6345 l0 -35 50 0 50 0 0 -185 0 -185 45 0 45 0 0 185 0 185 50
0 50 0 0 35 0 35 -145 0 -145 0 0 -35z"/>
<path d="M10550 6160 l0 -220 41 0 41 0 -4 174 c-2 96 -1 173 1 171 3 -4 61
-320 61 -337 0 -5 18 -8 40 -8 22 0 40 3 40 8 0 4 16 81 34 172 l34 165 1
-172 1 -173 40 0 40 0 0 220 0 221 -62 -3 -63 -3 -29 -144 c-34 -162 -32 -162
-66 27 l-22 122 -64 0 -64 0 0 -220z"/>
<path d="M11022 6168 c-29 -117 -52 -216 -52 -220 0 -5 18 -8 39 -8 l40 0 12
55 12 56 56 -3 55 -3 11 -50 c10 -50 10 -50 53 -53 23 -2 42 0 42 5 0 4 -23
104 -52 221 l-53 212 -55 0 -55 0 -53 -212z m128 37 l17 -85 -39 0 c-37 0 -40
2 -35 23 3 12 11 52 18 89 7 38 14 66 17 63 2 -2 12 -43 22 -90z"/>
<path d="M11260 6345 l0 -35 50 0 50 0 2 -182 3 -183 43 -3 42 -3 0 185 0 186
50 0 50 0 0 35 0 35 -145 0 -145 0 0 -35z"/>
<path d="M11940 6160 l0 -221 123 3 122 3 3 33 3 32 -79 0 -80 0 -4 61 c-1 33
-1 63 1 65 2 2 38 4 78 4 l74 0 -3 33 -3 32 -70 1 c-38 1 -71 4 -72 8 -2 3 -3
26 -3 51 l0 45 75 0 75 0 0 35 0 35 -120 0 -120 0 0 -220z"/>
<path d="M591 6286 c-48 -17 -71 -50 -71 -103 0 -78 59 -113 195 -113 85 0
136 13 172 45 23 19 28 31 27 69 -1 55 -29 91 -83 106 -49 14 -198 11 -240 -4z
m238 -47 c36 -13 52 -37 45 -66 -10 -36 -49 -48 -165 -48 -91 0 -110 3 -128
19 -36 32 -22 80 29 99 28 10 187 7 219 -4z"/>
<path d="M2453 6280 c-55 -25 -83 -70 -83 -135 0 -81 38 -126 151 -179 78 -37
107 -100 69 -149 -28 -35 -72 -36 -105 -2 -14 13 -25 33 -25 45 0 18 -6 20
-56 20 l-56 0 7 -32 c24 -117 156 -173 271 -117 59 28 84 71 84 143 0 93 -21
121 -140 184 -84 44 -107 75 -92 120 10 32 54 52 80 36 9 -6 23 -25 31 -42 14
-30 18 -32 64 -32 l50 0 -6 36 c-9 52 -33 83 -80 105 -54 24 -111 24 -164 -1z"/>
<path d="M3693 6280 c-55 -24 -83 -70 -83 -133 0 -82 35 -125 145 -180 67 -33
87 -57 87 -103 0 -43 -28 -74 -69 -74 -29 0 -73 41 -73 70 0 18 -6 20 -55 20
-65 0 -68 -9 -32 -80 32 -65 90 -93 176 -87 100 8 161 67 161 159 0 92 -29
128 -160 195 -30 16 -61 40 -69 54 -32 57 22 119 77 88 14 -8 29 -25 32 -39 5
-22 12 -25 59 -28 l53 -3 -7 38 c-10 52 -38 88 -85 107 -53 21 -105 20 -157
-4z"/>
<path d="M1730 6004 l0 -286 113 3 c105 4 117 6 156 32 65 43 84 95 89 239 5
137 -10 197 -61 246 -43 42 -81 52 -199 52 l-98 0 0 -286z m218 172 c55 -53
50 -298 -6 -349 -10 -9 -37 -19 -60 -23 l-42 -7 0 208 0 207 43 -7 c23 -4 52
-17 65 -29z"/>
<path d="M2180 6005 l0 -285 50 0 50 0 0 285 0 285 -50 0 -50 0 0 -285z"/>
<path d="M2790 6005 l0 -285 149 0 c146 0 149 0 155 23 3 12 6 32 6 45 0 21
-3 22 -105 22 l-105 0 0 80 0 80 95 0 95 0 0 45 0 45 -95 0 -95 0 0 70 0 70
100 0 100 0 0 45 0 45 -150 0 -150 0 0 -285z"/>
<path d="M3276 6273 c-13 -46 -126 -527 -126 -539 0 -10 14 -14 49 -14 l50 0
11 58 c6 31 13 63 15 70 3 8 27 12 74 12 l69 0 12 -70 12 -70 54 0 c30 0 54 4
54 10 0 5 -29 130 -65 277 -36 148 -65 271 -65 276 0 4 -31 7 -69 7 -58 0 -71
-3 -75 -17z m93 -188 c29 -139 30 -135 -25 -135 -45 0 -46 1 -41 28 3 15 13
69 23 119 10 51 19 92 20 90 1 -1 11 -47 23 -102z"/>
<path d="M4030 6005 l0 -285 149 0 149 0 6 31 c12 61 15 59 -99 59 l-105 0 0
80 0 80 95 0 95 0 0 45 0 45 -95 0 -95 0 0 70 0 70 100 0 100 0 0 45 0 45
-150 0 -150 0 0 -285z"/>
<path d="M1354 6251 c-28 -12 -65 -62 -95 -124 -26 -57 -57 -76 -94 -59 -43
20 -29 92 17 92 15 0 18 8 18 45 0 41 -2 45 -24 45 -14 0 -38 -12 -55 -26 -74
-62 -58 -205 27 -241 73 -31 133 0 179 92 36 71 61 95 99 95 40 0 56 -19 52
-62 -2 -26 -10 -36 -35 -48 -29 -13 -33 -19 -33 -57 0 -49 10 -53 67 -26 81
38 97 189 27 254 -26 25 -113 36 -150 20z"/>
<path d="M4520 6140 l0 -110 200 0 201 0 -3 108 -3 107 -27 3 c-27 3 -27 3
-30 -70 l-3 -73 -57 -3 -58 -3 0 71 0 70 -30 0 -30 0 0 -70 0 -70 -50 0 -50 0
0 75 0 75 -30 0 -30 0 0 -110z"/>
<path d="M5080 5954 l0 -235 43 3 42 3 3 93 3 92 45 0 c102 0 158 55 151 148
-7 97 -64 130 -224 131 l-63 1 0 -236z m180 146 c24 -24 26 -77 3 -102 -10
-11 -30 -18 -55 -18 l-38 0 0 70 0 70 35 0 c22 0 43 -8 55 -20z"/>
<path d="M5501 6168 c-64 -43 -76 -77 -76 -213 0 -137 16 -185 74 -218 38 -23
118 -24 159 -3 94 49 112 322 27 414 -28 32 -39 36 -91 40 -50 3 -65 0 -93
-20z m126 -75 c25 -38 26 -237 1 -275 -36 -55 -99 -31 -113 46 -12 64 -2 199
18 229 24 37 70 37 94 0z"/>
<path d="M5817 6184 c-4 -4 -7 -110 -7 -236 l0 -228 40 0 40 0 1 188 1 187 29
-165 c40 -229 33 -210 78 -210 l38 0 17 83 c9 45 25 126 36 180 10 54 20 100
22 103 2 2 4 -78 4 -179 l-1 -182 43 -3 42 -3 -2 233 -3 233 -57 3 c-71 4 -67
9 -107 -183 -24 -118 -30 -135 -35 -105 -4 19 -17 91 -29 160 l-23 125 -60 3
c-33 2 -63 0 -67 -4z"/>
<path d="M6290 6184 c0 -2 0 -106 -1 -231 l0 -228 126 -3 c96 -2 125 0 125 10
0 7 3 23 6 35 6 22 3 22 -82 25 l-89 3 -3 68 -3 67 81 0 80 0 0 35 0 35 -80 0
-80 0 0 55 0 55 86 0 85 0 -3 38 -3 37 -122 2 c-68 1 -123 -1 -123 -3z"/>
<path d="M6695 6181 c-70 -31 -112 -143 -101 -269 7 -86 34 -153 70 -177 33
-22 108 -23 139 -2 22 14 26 14 31 2 3 -9 18 -15 36 -15 l30 0 0 130 0 130
-75 0 -75 0 0 -35 c0 -34 2 -35 36 -35 l36 0 -7 -47 c-3 -27 -13 -54 -20 -62
-17 -18 -63 -17 -81 1 -38 38 -36 257 2 299 31 35 94 19 94 -23 0 -15 8 -18
46 -18 l47 0 -7 33 c-4 17 -20 45 -36 61 -24 25 -38 30 -87 33 -32 1 -67 -1
-78 -6z"/>
<path d="M6987 6183 c-4 -3 -7 -109 -7 -235 l0 -228 45 0 45 0 0 100 0 100 33
0 c59 0 71 -18 77 -112 l5 -83 43 -3 42 -3 0 63 c-1 80 -14 139 -36 155 -15
11 -14 15 10 43 20 25 26 42 26 81 0 67 -36 108 -106 120 -61 10 -168 11 -177
2z m173 -81 c16 -13 23 -29 22 -53 -1 -41 -23 -59 -74 -59 l-38 0 0 65 0 65
34 0 c19 0 44 -8 56 -18z"/>
<path d="M7426 6182 c-5 -8 -116 -446 -116 -457 0 -3 20 -5 44 -5 l43 0 13 60
13 60 58 0 58 0 12 -60 12 -60 43 0 c24 0 44 5 44 10 0 17 -100 413 -110 438
-8 19 -17 22 -59 22 -27 0 -52 -4 -55 -8z m73 -159 c7 -38 15 -78 18 -90 5
-21 2 -23 -37 -23 -39 0 -42 2 -37 22 4 12 12 53 19 90 7 37 15 68 18 68 4 0
12 -30 19 -67z"/>
<path d="M7700 5955 l0 -235 40 0 40 0 0 163 1 162 62 -160 62 -160 48 -3 47
-3 0 236 0 236 -37 -3 -38 -3 0 -157 c0 -86 -1 -156 -1 -155 -1 1 -28 67 -60
147 -31 80 -61 151 -67 158 -5 6 -29 12 -53 12 l-44 0 0 -235z"/>
<path d="M8167 6183 c-3 -5 -28 -102 -56 -218 -29 -115 -54 -218 -57 -227 -5
-15 1 -18 40 -18 l45 0 12 60 12 60 58 0 58 0 12 -60 12 -60 43 0 c35 0 44 3
44 18 -1 23 -104 424 -113 440 -9 13 -103 17 -110 5z m72 -155 c6 -35 14 -75
18 -90 5 -27 4 -28 -37 -28 -39 0 -42 2 -37 22 4 12 12 53 19 90 7 37 15 68
18 68 4 0 12 -28 19 -62z"/>
<path d="M8364 6181 c-2 -2 -4 -19 -4 -38 l0 -33 55 0 55 0 0 -195 0 -195 45
0 45 0 0 195 0 195 50 0 50 0 0 34 0 35 -146 3 c-80 2 -148 1 -150 -1z"/>
<path d="M8714 6177 c-2 -7 -3 -111 -2 -232 l3 -220 128 -3 c120 -2 127 -2
127 17 0 11 3 26 6 35 5 14 -6 16 -85 16 l-91 0 0 70 0 70 80 0 80 0 0 35 0
35 -80 0 -80 0 0 55 0 55 86 0 85 0 -3 38 -3 37 -123 2 c-89 1 -124 -1 -128
-10z"/>
<path d="M9430 5951 l-285 -66 -3 -67 c-2 -57 0 -67 15 -72 52 -15 539 -126
555 -126 9 0 13 14 12 47 l-1 48 -59 13 c-32 8 -65 15 -71 18 -9 2 -13 25 -13
68 0 71 -2 69 75 82 62 10 68 16 68 68 0 26 -2 48 -4 50 -2 2 -132 -26 -289
-63z m60 -136 c0 -29 -4 -45 -12 -45 -18 0 -221 40 -225 44 -4 4 191 43 220
45 14 1 17 -7 17 -44z"/>
<path d="M4520 5951 l0 -39 98 -22 c53 -12 110 -26 126 -31 16 -5 40 -9 52 -9
13 0 24 -4 24 -10 0 -5 -9 -10 -21 -10 -18 0 -215 -42 -261 -56 -13 -4 -18
-16 -18 -45 0 -21 2 -39 4 -39 17 0 383 103 389 109 5 5 7 26 5 47 l-3 38
-170 46 c-93 26 -182 50 -197 54 -27 6 -28 5 -28 -33z"/>
<path d="M520 5825 l0 -95 195 0 195 0 0 95 c0 88 -1 95 -20 95 -18 0 -20 -7
-20 -70 l0 -70 -70 0 -70 0 0 66 c0 62 -1 65 -22 62 -21 -3 -23 -9 -26 -66
l-3 -63 -57 3 -57 3 -3 68 c-3 59 -5 67 -22 67 -18 0 -20 -7 -20 -95z"/>
<path d="M1470 5836 l0 -86 -65 0 -65 0 0 75 0 75 -41 0 -41 0 4 -75 3 -75
-57 0 -58 0 0 80 0 80 -35 0 -35 0 0 -125 0 -125 230 0 231 0 -3 128 -3 127
-32 3 -33 3 0 -85z"/>
<path d="M10131 5764 c-17 -14 -43 -47 -58 -73 -38 -66 -53 -81 -83 -81 -31 0
-50 17 -50 45 0 26 18 45 42 45 14 0 18 8 18 40 0 35 -3 40 -22 40 -42 0 -86
-36 -98 -80 -21 -79 11 -151 77 -169 72 -20 134 13 175 94 11 22 30 50 41 63
37 40 107 23 107 -26 0 -35 -10 -49 -43 -61 -23 -9 -27 -16 -27 -51 0 -22 4
-40 10 -40 26 0 90 34 104 55 40 61 28 155 -25 200 -44 36 -125 36 -168 -1z"/>
<path d="M11174 5770 c-54 -27 -81 -78 -96 -179 -13 -95 1 -225 29 -274 62
-105 221 -100 273 8 30 63 25 80 -28 81 -38 1 -43 -2 -49 -25 -13 -57 -63 -80
-96 -43 -22 24 -37 94 -37 177 0 83 15 153 37 177 32 35 81 15 97 -39 6 -20
14 -23 53 -23 l45 0 -6 38 c-19 102 -123 150 -222 102z"/>
<path d="M10490 5515 l0 -265 129 0 c139 0 141 1 141 56 0 24 -1 24 -90 24
l-90 0 0 225 0 225 -45 0 -45 0 0 -265z"/>
<path d="M10700 5776 c0 -4 29 -76 65 -162 l65 -156 0 -104 0 -104 50 0 50 0
0 100 0 100 65 157 c36 86 65 160 65 165 0 4 -22 8 -48 8 l-48 0 -38 -117
c-22 -65 -41 -113 -43 -108 -2 6 -21 57 -41 115 l-38 105 -52 3 c-29 2 -52 1
-52 -2z"/>
<path d="M11460 5515 l0 -265 50 0 50 0 0 120 0 120 60 0 59 0 3 -117 3 -118
48 -3 47 -3 0 265 0 266 -50 0 -50 0 0 -105 0 -105 -60 0 -60 0 0 105 0 105
-50 0 -50 0 0 -265z"/>
<path d="M11870 5515 l0 -265 139 0 139 0 4 40 4 40 -93 0 -93 0 0 80 0 80 85
0 85 0 0 40 0 40 -85 0 -85 0 0 65 0 65 90 0 90 0 0 40 0 40 -140 0 -140 0 0
-265z"/>
<path d="M12220 5515 l0 -265 134 0 134 0 6 31 c3 17 6 35 6 40 0 5 -43 9 -95
9 l-95 0 0 80 0 80 85 0 85 0 0 40 0 40 -85 0 -85 0 0 65 0 65 90 0 90 0 0 40
0 40 -135 0 -135 0 0 -265z"/>
<path d="M870 5625 l0 -65 -172 -2 c-171 -3 -173 -3 -176 -25 l-3 -23 195 0
196 0 0 90 c0 83 -1 90 -20 90 -18 0 -20 -7 -20 -65z"/>
<path d="M4832 5533 l3 -68 73 -3 72 -3 0 71 0 70 -75 0 -76 0 3 -67z"/>
<path d="M6190 5530 l0 -70 75 0 75 0 0 70 0 70 -75 0 -75 0 0 -70z"/>
<path d="M6780 5476 l0 -124 -32 16 c-41 20 -134 20 -175 -1 -88 -46 -127
-139 -126 -302 1 -172 35 -259 116 -296 73 -33 169 -17 209 34 l18 22 0 -32 0
-33 75 0 75 0 0 420 0 420 -80 0 -80 0 0 -124z m-18 -236 c22 -27 32 -114 25
-215 -7 -94 -19 -128 -54 -144 -93 -43 -143 46 -131 232 5 80 27 133 61 147
31 13 79 3 99 -20z"/>
<path d="M1080 5525 l0 -45 230 0 230 0 0 45 0 45 -230 0 -230 0 0 -45z"/>
<path d="M3306 5183 c-53 -214 -99 -396 -102 -406 -5 -16 1 -18 73 -15 l78 3
21 95 20 95 101 3 101 3 11 -51 c6 -27 16 -72 22 -100 l11 -50 79 0 c43 0 79
2 79 5 0 5 -170 687 -191 768 l-10 37 -98 0 -99 0 -96 -387z m223 97 c17 -80
33 -155 36 -167 5 -22 3 -23 -66 -23 l-71 0 4 28 c11 59 63 310 65 308 1 -1
16 -67 32 -146z"/>
<path d="M9213 5550 c-53 -32 -67 -70 -71 -202 l-4 -118 290 0 290 0 4 46 c2
25 1 47 -1 50 -2 2 -58 4 -123 4 l-118 0 0 43 c0 72 13 81 128 87 55 3 104 8
108 12 4 4 7 27 7 50 l0 43 -104 -4 c-115 -4 -146 -12 -170 -43 l-17 -21 -11
21 c-28 52 -146 70 -208 32z m152 -105 c19 -18 25 -35 25 -70 l0 -45 -80 0
-80 0 0 48 c0 52 5 63 35 80 33 19 74 14 100 -13z"/>
<path d="M2890 5553 c-29 -10 -62 -48 -87 -98 -36 -72 -51 -85 -93 -85 -44 0
-60 14 -60 55 0 34 26 65 53 65 12 0 17 9 17 31 0 30 -1 31 -32 25 -18 -4 -44
-18 -58 -31 -21 -22 -25 -35 -25 -86 0 -56 3 -63 33 -90 26 -23 42 -29 78 -29
39 0 50 5 76 33 17 17 45 57 62 87 19 34 41 58 57 64 93 32 151 -89 63 -131
-27 -13 -34 -23 -34 -45 0 -33 -2 -33 50 -12 25 10 47 28 55 45 20 37 19 112
-1 150 -23 45 -101 71 -154 52z"/>
<path d="M2179 5541 c-77 -15 -123 -61 -184 -181 -15 -30 -34 -63 -43 -72 -20
-24 -74 -33 -103 -17 -32 16 -39 28 -39 66 0 35 22 56 73 68 26 7 27 10 27 66
0 58 -1 59 -28 59 -42 0 -114 -41 -139 -78 -42 -63 -42 -172 0 -233 41 -60 70
-74 157 -74 72 0 81 2 116 30 21 18 57 66 81 110 25 44 54 90 65 102 51 54
151 34 164 -32 8 -46 -15 -82 -67 -103 l-39 -15 0 -59 c0 -49 3 -58 18 -58 43
0 100 25 133 59 88 88 69 276 -34 335 -48 27 -105 37 -158 27z"/>
<path d="M4490 5455 l0 -75 -40 0 -40 0 0 -60 0 -60 40 0 40 0 0 -186 c0 -204
10 -264 47 -294 29 -23 116 -35 163 -23 34 9 35 11 38 60 l3 52 -43 3 -43 3
-3 193 -2 192 50 0 51 0 -3 58 -3 57 -47 3 -48 3 0 75 0 74 -80 0 -80 0 0 -75z"/>
<path d="M8247 5524 c-4 -4 -7 -38 -7 -76 l0 -68 -40 0 -40 0 0 -60 0 -60 40
0 40 0 0 -182 c1 -215 8 -264 44 -294 30 -26 115 -40 166 -27 34 9 35 11 38
60 l3 52 -43 3 -43 3 -3 193 -2 192 50 0 51 0 -3 58 -3 57 -47 3 -47 3 -3 72
-3 72 -70 3 c-39 1 -74 0 -78 -4z"/>
<path d="M9880 5350 l0 -140 35 0 35 0 0 50 0 50 195 0 195 0 0 40 0 40 -195
0 -195 0 0 50 0 50 -35 0 -35 0 0 -140z"/>
<path d="M724 5425 c-24 -24 -25 -24 -44 -5 -29 29 -91 27 -127 -4 -25 -21
-28 -31 -31 -100 l-4 -76 196 0 196 0 0 65 c0 108 -30 145 -115 145 -36 0 -51
-6 -71 -25z m106 -25 c21 0 40 -34 40 -71 l0 -39 -75 0 -75 0 0 33 c0 55 42
93 88 81 8 -2 17 -4 22 -4z m-162 -22 c7 -7 12 -29 12 -50 l0 -38 -60 0 -60 0
0 31 c0 50 16 69 58 69 21 0 43 -5 50 -12z"/>
<path d="M1161 5407 c-62 -22 -76 -54 -76 -175 l0 -107 228 -3 227 -2 0 44 0
45 -97 3 -98 3 1 39 c2 52 23 66 100 66 86 0 94 4 94 52 l0 40 -89 -4 c-77 -3
-93 -6 -114 -26 l-25 -23 -25 25 c-15 14 -35 26 -46 26 -11 0 -25 2 -33 4 -7
3 -28 0 -47 -7z m85 -85 c19 -12 34 -49 34 -81 l0 -31 -65 0 -65 0 0 44 c0 35
5 48 22 60 24 17 56 20 74 8z"/>
<path d="M4115 5379 c-16 -7 -42 -23 -57 -36 l-26 -25 -4 28 c-3 29 -4 29 -75
32 l-73 3 0 -311 0 -310 75 0 75 0 0 210 c0 162 3 219 15 245 22 55 81 68 128
27 15 -14 17 -39 17 -249 l0 -234 76 3 75 3 -1 250 c-1 226 -3 254 -20 290
-11 22 -33 48 -50 58 -37 22 -115 30 -155 16z"/>
<path d="M5280 5379 c-69 -14 -120 -55 -155 -124 -29 -57 -30 -66 -30 -190 0
-119 2 -135 26 -186 42 -88 111 -129 218 -129 121 0 206 73 232 198 17 83 8
247 -18 302 -48 106 -150 154 -273 129z m110 -137 c22 -22 30 -42 35 -87 10
-80 0 -206 -19 -243 -28 -55 -97 -57 -132 -4 -40 58 -44 244 -8 314 27 53 82
61 124 20z"/>
<path d="M7213 5380 c-93 -19 -141 -64 -156 -147 l-6 -33 73 0 74 0 7 30 c11
50 73 67 113 33 16 -14 22 -32 24 -72 l2 -54 -74 -4 c-75 -4 -146 -27 -184
-61 -30 -27 -56 -92 -56 -143 0 -101 78 -179 179 -179 45 0 131 34 131 51 0 5
5 9 10 9 6 0 10 -11 10 -25 0 -24 2 -25 68 -25 l68 0 -4 253 c-4 291 -8 306
-83 344 -51 25 -136 35 -196 23z m137 -382 c0 -51 -19 -107 -40 -118 -24 -13
-76 -13 -100 0 -21 11 -35 67 -25 99 9 31 53 50 113 51 l52 0 0 -32z"/>
<path d="M7865 5379 c-16 -7 -42 -23 -57 -36 l-26 -25 -4 28 c-3 29 -4 29 -75
32 l-73 3 0 -311 0 -310 75 0 75 0 1 208 c0 133 4 219 12 242 21 60 90 75 130
28 15 -18 17 -46 17 -249 l0 -229 75 0 75 0 0 256 c0 242 -1 258 -21 294 -11
20 -34 44 -50 54 -36 21 -115 29 -154 15z"/>
<path d="M8713 5380 c-87 -21 -135 -74 -141 -158 -7 -101 26 -139 181 -202 42
-18 84 -42 92 -53 35 -50 2 -107 -60 -107 -39 0 -71 25 -81 65 -6 24 -9 25
-81 25 l-75 0 7 -37 c20 -111 115 -171 253 -160 126 10 202 79 202 184 0 95
-44 143 -177 194 -43 17 -86 38 -95 46 -35 32 -11 103 35 103 34 0 68 -24 74
-52 5 -28 6 -28 79 -28 l74 0 -7 33 c-22 116 -142 180 -280 147z"/>
<path d="M4830 5070 l0 -310 75 0 75 0 0 310 0 310 -75 0 -75 0 0 -310z"/>
<path d="M5610 5377 c0 -1 36 -71 80 -155 44 -83 80 -153 80 -155 0 -2 -36
-70 -80 -150 -44 -80 -80 -149 -80 -152 0 -3 35 -5 79 -5 l78 0 47 102 48 102
45 -102 46 -102 84 0 c47 0 83 3 81 8 -13 28 -106 208 -134 257 l-33 60 84
143 c47 79 85 145 85 148 0 2 -35 4 -78 4 l-77 0 -49 -97 -49 -98 -46 95 -46
95 -82 3 c-46 2 -83 1 -83 -1z"/>
<path d="M6190 5070 l0 -310 75 0 75 0 0 310 0 310 -75 0 -75 0 0 -310z"/>
<path d="M2908 5240 c-48 -9 -69 -27 -107 -100 -18 -33 -42 -66 -54 -75 -49
-34 -101 -4 -95 57 2 26 10 36 36 48 27 11 32 19 30 40 -2 20 -8 24 -28 22
-41 -6 -68 -30 -81 -71 -33 -111 53 -200 154 -157 27 11 44 29 64 66 56 105
97 134 150 108 55 -27 50 -110 -7 -131 -23 -9 -30 -17 -30 -39 0 -32 16 -36
60 -13 39 20 60 63 60 124 0 85 -65 136 -152 121z"/>
<path d="M715 5151 l-190 -47 -3 -31 c-3 -27 1 -33 20 -38 13 -3 97 -23 188
-45 91 -22 168 -40 173 -40 4 0 7 11 7 24 0 21 -7 25 -60 35 l-60 12 0 49 c0
53 0 53 73 66 39 7 52 20 45 47 -2 12 -37 7 -193 -32z m35 -82 c0 -29 -4 -40
-13 -36 -7 2 -39 10 -72 16 -94 19 -95 23 -15 41 105 24 100 26 100 -21z"/>
<path d="M9880 5129 l0 -42 155 5 c85 3 154 4 152 2 -1 -1 -45 -18 -97 -37
-52 -19 -121 -45 -152 -57 l-58 -21 0 -45 0 -44 230 0 230 0 0 35 0 35 -162 1
-163 0 160 58 160 59 3 46 3 46 -230 0 -231 0 0 -41z"/>
<path d="M9334 5141 c-84 -14 -121 -30 -157 -70 -53 -59 -58 -147 -11 -218 8
-14 41 -37 72 -51 109 -51 350 -40 433 19 42 29 59 69 59 136 0 91 -46 148
-140 173 -52 14 -198 20 -256 11z m224 -112 c88 -18 119 -84 59 -124 -54 -35
-267 -41 -344 -10 -57 24 -69 90 -20 117 50 27 215 37 305 17z"/>
<path d="M1720 4880 l0 -210 55 0 54 0 3 73 3 72 288 0 287 0 0 63 0 62 -290
0 -290 0 0 75 0 75 -55 0 -55 0 0 -210z"/>
<path d="M1150 5042 c-53 -26 -70 -70 -70 -179 l0 -93 230 0 230 0 0 40 0 39
-97 3 -98 3 1 39 c2 51 23 66 93 66 90 0 101 6 101 51 l0 39 -74 0 c-81 0
-124 -11 -144 -38 -12 -16 -14 -16 -24 1 -11 20 -66 47 -95 47 -10 0 -34 -8
-53 -18z m105 -85 c12 -10 18 -28 19 -58 l1 -44 -62 -3 -63 -3 0 42 c0 25 7
50 17 61 19 21 62 24 88 5z"/>
<path d="M10492 5018 l3 -33 260 0 260 0 3 33 3 32 -266 0 -266 0 3 -32z"/>
<path d="M520 4860 c0 -102 1 -110 19 -110 16 0 20 8 23 43 l3 42 173 3 c163
2 172 3 172 22 0 19 -9 20 -172 22 l-173 3 -3 43 c-3 34 -7 42 -23 42 -18 0
-19 -8 -19 -110z"/>
<path d="M3008 4853 l-3 -88 -80 0 -80 0 -3 78 c-3 74 -4 77 -27 77 -24 0 -25
-2 -25 -80 l0 -80 -65 0 -64 0 -3 83 c-3 76 -5 82 -25 85 -23 3 -23 2 -23
-107 l0 -111 225 0 225 0 0 110 c0 61 -4 110 -9 110 -5 0 -16 3 -25 6 -13 5
-16 -8 -18 -83z"/>
<path d="M10965 4922 c-3 -3 -5 -47 -5 -98 l0 -94 -232 -2 -233 -3 -3 -37 -3
-38 265 0 266 0 0 134 0 134 -25 4 c-13 3 -27 3 -30 0z"/>
<path d="M9887 4823 c-4 -3 -7 -57 -7 -120 l0 -113 230 0 230 0 0 120 0 120
-35 0 -35 0 0 -80 0 -80 -65 0 -64 0 -3 73 -3 72 -35 0 -35 0 -3 -72 -3 -73
-54 0 -55 0 0 80 0 80 -28 0 c-16 0 -32 -3 -35 -7z"/>
<path d="M527 4713 c-4 -3 -7 -46 -7 -95 l0 -88 195 0 195 0 0 95 c0 88 -1 95
-20 95 -18 0 -20 -7 -20 -70 l0 -70 -70 0 -70 0 0 66 c0 62 -1 65 -22 62 -21
-3 -23 -9 -26 -65 l-3 -63 -59 0 -60 0 0 70 c0 52 -3 70 -13 70 -8 0 -17 -3
-20 -7z"/>
<path d="M1470 4620 l0 -90 -65 0 -65 0 0 80 0 80 -41 0 -40 0 2 -77 2 -78
-54 0 -54 0 -3 83 -3 82 -34 0 -35 0 0 -125 0 -125 230 0 230 0 0 124 c0 120
-1 124 -22 130 -47 12 -48 10 -48 -84z"/>
<path d="M6568 4616 c-93 -25 -155 -103 -178 -225 -13 -71 -13 -282 1 -356 12
-66 46 -140 77 -168 65 -59 200 -59 259 -1 30 30 33 30 33 -1 0 -24 2 -25 65
-25 l65 0 0 220 0 220 -125 0 -125 0 0 -70 0 -70 35 0 35 0 0 -54 c0 -66 -12
-101 -40 -116 -33 -17 -66 -4 -83 32 -35 74 -30 397 8 454 34 53 96 36 113
-30 l8 -31 87 -3 c86 -3 87 -2 87 21 0 13 -7 45 -16 71 -40 116 -165 170 -306
132z"/>
<path d="M9376 4616 c-93 -35 -140 -106 -139 -211 1 -106 34 -151 168 -230
108 -64 125 -81 132 -132 7 -51 -20 -86 -67 -86 -40 0 -70 32 -70 74 l0 29
-91 0 -92 0 6 -45 c14 -102 73 -164 176 -186 142 -30 273 32 306 145 43 144
-11 247 -177 336 -43 23 -87 53 -98 67 -35 45 -22 103 27 118 29 8 73 -34 73
-70 0 -25 0 -25 86 -25 l87 0 -6 52 c-8 65 -45 121 -98 149 -55 27 -169 35
-223 15z"/>
<path d="M2610 4585 l0 -25 173 0 172 -1 -172 -72 -173 -72 0 -38 0 -37 223 2
222 3 0 25 0 25 -183 0 c-101 0 -180 1 -175 3 4 1 87 35 183 75 172 72 175 74
178 105 l3 32 -225 0 -226 0 0 -25z"/>
<path d="M7000 4225 l0 -385 85 0 85 0 0 155 0 155 43 0 c23 0 48 -4 55 -8 21
-14 32 -72 32 -174 0 -53 3 -103 6 -112 5 -13 23 -16 91 -16 l86 0 -7 143 c-8
152 -20 196 -62 224 l-23 15 30 25 c44 37 61 79 62 147 1 75 -15 125 -51 159
-51 49 -87 57 -267 57 l-165 0 0 -385z m281 236 c20 -16 24 -28 23 -76 0 -71
-23 -95 -90 -95 l-44 0 0 95 0 95 44 0 c28 0 52 -7 67 -19z"/>
<path d="M7686 4593 c-6 -23 -146 -733 -146 -744 0 -5 40 -9 89 -9 l89 0 7 58
c13 109 8 103 88 100 l72 -3 7 -45 c4 -25 10 -60 13 -77 l6 -33 89 0 c67 0 90
3 90 13 0 11 -132 679 -145 735 -5 21 -9 22 -130 22 -109 0 -124 -2 -129 -17z
m168 -405 l6 -38 -45 0 c-53 0 -53 -2 -30 148 28 181 26 179 46 47 10 -66 20
-137 23 -157z"/>
<path d="M8160 4226 l0 -386 85 0 85 0 0 149 0 148 79 5 c112 6 166 35 204
108 26 50 28 63 25 135 -4 97 -27 147 -87 190 l-43 30 -174 3 -174 3 0 -385z
m277 232 c19 -18 23 -32 23 -80 0 -75 -20 -98 -85 -98 l-45 0 0 100 0 100 42
0 c29 0 49 -7 65 -22z"/>
<path d="M8720 4225 l0 -385 209 0 c116 0 212 3 214 8 2 4 7 35 11 70 l7 62
-131 0 -130 0 0 95 0 95 115 0 115 0 0 70 0 70 -115 0 -115 0 0 80 0 80 120 0
120 0 0 70 0 70 -210 0 -210 0 0 -385z"/>
<path d="M1720 4540 l0 -59 345 -3 345 -3 0 63 0 62 -345 0 -345 0 0 -60z"/>
<path d="M3200 4271 l0 -311 40 0 40 0 0 113 c0 111 0 113 31 150 l30 37 74
-150 75 -150 45 0 45 0 -92 184 -91 183 86 121 c48 66 87 123 87 127 0 3 -19
5 -42 3 l-43 -3 -100 -144 -100 -144 -5 144 -5 144 -37 3 -38 3 0 -310z"/>
<path d="M3637 4573 c-4 -3 -7 -143 -7 -310 l0 -303 40 0 40 0 0 310 0 310
-33 0 c-19 0 -37 -3 -40 -7z"/>
<path d="M3793 4558 c3 -13 32 -152 64 -310 l58 -288 42 0 41 0 12 53 c9 39
55 256 90 427 1 4 99 -465 100 -477 0 -2 19 -3 43 -3 l42 0 63 293 c35 160 66
300 69 310 4 14 -2 17 -36 17 -38 0 -40 -2 -47 -37 -4 -21 -26 -135 -49 -253
-36 -188 -42 -210 -49 -175 -14 75 -87 430 -92 448 -4 14 -14 17 -42 15 -36
-3 -36 -4 -49 -63 -78 -380 -92 -437 -96 -415 -3 14 -22 124 -42 245 -21 121
-39 223 -42 228 -2 4 -22 7 -45 7 -37 0 -40 -2 -35 -22z"/>
<path d="M4497 4574 c-4 -4 -7 -144 -7 -311 l0 -303 40 0 40 0 -2 308 -3 307
-30 3 c-17 2 -34 0 -38 -4z"/>
<path d="M4770 4545 l0 -25 195 -2 196 -3 -193 -76 -193 -76 -3 -37 -3 -36
255 0 256 0 0 25 0 25 -205 2 -205 3 205 79 205 79 0 34 0 33 -255 0 -255 0 0
-25z"/>
<path d="M10662 4559 c-150 -19 -217 -116 -163 -235 15 -33 30 -47 72 -67 94
-46 279 -46 374 -1 107 50 111 213 7 272 -32 18 -179 45 -217 41 -5 -1 -38 -5
-73 -10z m229 -80 c116 -39 101 -153 -23 -175 -62 -11 -218 -8 -253 6 -100 38
-99 140 1 170 43 12 236 12 275 -1z"/>
<path d="M5460 4406 c0 -131 2 -156 15 -156 12 0 15 23 17 127 l3 126 49 -126
c38 -100 53 -127 67 -127 18 0 19 10 19 155 0 130 -2 155 -15 155 -12 0 -15
-22 -17 -117 l-3 -117 -45 114 c-37 94 -50 116 -68 118 -22 3 -22 3 -22 -152z"/>
<path d="M5692 4425 c3 -122 5 -136 25 -156 30 -31 100 -30 125 1 15 19 18 42
18 156 0 112 -2 134 -15 134 -13 0 -15 -21 -15 -130 0 -127 0 -130 -25 -146
-23 -15 -27 -15 -50 0 -25 16 -25 19 -25 146 0 125 -1 130 -21 130 -20 0 -21
-3 -17 -135z"/>
<path d="M5900 4546 c0 -9 12 -16 33 -18 l32 -3 3 -137 c2 -114 5 -138 17
-138 13 0 15 23 15 140 l0 140 35 0 c24 0 35 5 35 15 0 12 -16 15 -85 15 -67
0 -85 -3 -85 -14z"/>
<path d="M6111 4534 c-39 -50 -22 -94 53 -138 61 -35 72 -91 24 -117 -23 -12
-68 12 -68 36 0 8 -9 15 -21 15 -16 0 -19 -4 -13 -22 12 -42 35 -58 80 -58 56
0 84 28 84 82 0 42 -16 61 -80 102 -29 18 -35 28 -35 56 0 32 3 35 31 38 25 2
33 -2 42 -23 14 -30 39 -29 34 1 -11 58 -94 76 -131 28z"/>
<path d="M9880 4450 c0 -33 2 -60 4 -60 7 0 252 -50 276 -56 17 -5 -21 -15
-125 -33 l-150 -26 -3 -62 -3 -63 231 0 230 0 0 41 0 42 -187 -8 c-104 -4
-186 -5 -183 -2 3 3 79 17 170 31 211 34 200 30 200 71 0 40 15 35 -200 74
l-155 29 178 1 177 1 0 40 0 40 -230 0 -230 0 0 -60z"/>
<path d="M583 4459 c-43 -12 -63 -44 -63 -97 0 -80 69 -122 198 -122 131 0
197 36 197 110 0 24 -8 46 -19 59 -17 19 -17 21 -3 21 10 0 17 8 17 20 0 19
-7 20 -105 20 l-105 0 0 -60 c0 -53 2 -60 20 -60 16 0 20 7 20 35 0 38 11 42
79 29 76 -15 75 -94 -1 -115 -60 -16 -199 -7 -233 15 -36 24 -32 75 8 94 18 9
27 21 27 38 0 13 -1 24 -2 23 -2 0 -17 -5 -35 -10z"/>
<path d="M1728 4364 c-5 -4 -8 -34 -8 -66 l0 -58 265 0 c322 0 335 -4 335 -94
0 -22 -8 -40 -26 -57 l-26 -24 -274 -3 -274 -3 0 -60 0 -60 293 3 c287 3 293
3 330 27 56 34 81 90 81 181 1 99 -27 153 -98 189 -49 25 -54 26 -320 29 -149
2 -274 1 -278 -4z"/>
<path d="M1080 4315 l0 -45 90 0 90 0 0 -60 0 -60 -91 0 -90 0 3 -40 3 -41
225 0 225 0 3 40 3 40 -103 3 -103 3 -3 58 -3 57 106 0 105 0 0 45 0 45 -230
0 -230 0 0 -45z"/>
<path d="M3010 4211 l0 -81 -200 0 -200 0 0 -30 0 -30 225 0 226 0 -3 108 c-3
102 -4 107 -25 110 -22 3 -23 1 -23 -77z"/>
<path d="M4934 4200 c-122 -17 -183 -74 -171 -162 7 -54 28 -82 84 -109 43
-22 62 -24 178 -24 116 0 135 2 178 24 48 23 74 57 78 102 10 112 -51 160
-221 172 -36 3 -93 1 -126 -3z m253 -83 c52 -27 58 -85 13 -118 -37 -27 -163
-42 -252 -30 -88 12 -122 34 -126 83 -6 67 51 89 218 85 85 -3 124 -8 147 -20z"/>
<path d="M527 4193 c-4 -3 -7 -46 -7 -95 l0 -88 195 0 195 0 0 95 c0 88 -1 95
-20 95 -18 0 -20 -7 -20 -70 l0 -70 -70 0 -70 0 0 66 c0 62 -1 65 -22 62 -21
-3 -23 -9 -26 -65 l-3 -63 -59 0 -60 0 0 70 c0 52 -3 70 -13 70 -8 0 -17 -3
-20 -7z"/>
<path d="M10573 4149 c-99 -29 -124 -173 -43 -250 48 -46 112 -63 240 -62 107
0 184 20 218 56 70 74 49 203 -40 246 -64 30 -78 28 -78 -13 0 -29 4 -35 28
-41 42 -10 72 -44 72 -80 0 -39 -30 -69 -85 -84 -52 -14 -204 -14 -261 0 -101
26 -116 132 -23 160 37 11 40 15 37 43 -3 34 -16 39 -65 25z"/>
<path d="M5450 3995 l0 -155 30 0 c30 0 30 1 30 53 0 29 6 61 13 71 12 16 16
10 41 -53 l28 -71 59 0 c56 0 59 1 65 28 11 49 13 52 49 52 33 0 35 -2 41 -40
6 -36 10 -40 35 -40 16 0 29 2 29 4 0 7 -60 268 -66 289 -4 14 -14 17 -42 15
-31 -3 -37 -7 -43 -33 -4 -16 -19 -83 -34 -148 -15 -65 -31 -115 -35 -110 -4
4 -23 45 -43 90 l-35 81 39 59 39 58 -26 3 c-32 4 -38 -1 -80 -75 l-33 -58 -1
68 0 67 -30 0 -30 0 0 -155z m334 -26 c-5 -9 -44 1 -44 12 0 4 5 32 12 61 l11
53 13 -60 c7 -33 10 -63 8 -66z"/>
<path d="M5900 3995 l0 -155 80 0 c79 0 80 0 80 25 0 23 -3 25 -50 25 l-50 0
0 130 0 130 -30 0 -30 0 0 -155z"/>
<path d="M6090 3995 l0 -155 79 0 c69 0 79 2 84 19 7 27 0 31 -55 31 l-48 0 0
45 0 45 51 0 c47 0 50 2 47 23 -3 19 -10 22 -50 25 -47 3 -48 4 -48 38 l0 34
50 0 c47 0 50 2 50 25 0 25 -1 25 -80 25 l-80 0 0 -155z"/>
<path d="M10270 4020 l0 -80 -65 0 -65 0 0 70 0 70 -40 0 -40 0 0 -70 0 -70
-55 0 -55 0 0 75 0 75 -35 0 -35 0 0 -120 0 -120 230 0 230 0 0 119 c0 115 -1
119 -22 125 -47 12 -48 10 -48 -74z"/>
<path d="M3010 3936 l0 -86 -200 0 -200 0 0 -30 0 -30 223 2 222 3 3 108 c2
63 -1 107 -7 107 -5 0 -16 3 -25 6 -14 5 -16 -6 -16 -80z"/>
<path d="M1151 3993 c-54 -28 -75 -65 -75 -128 0 -66 21 -100 84 -132 38 -20
60 -23 155 -23 95 0 117 3 155 23 120 60 98 242 -32 273 -27 6 -28 5 -28 -37
0 -40 4 -45 33 -59 40 -19 48 -57 17 -85 -18 -16 -40 -20 -125 -23 -63 -3
-117 0 -139 8 -65 21 -72 80 -13 105 28 12 32 18 31 52 -1 45 -15 51 -63 26z"/>
<path d="M520 3946 c0 -22 7 -26 53 -36 28 -6 104 -24 167 -39 l114 -28 -54
-12 c-30 -6 -106 -23 -167 -37 -107 -25 -113 -27 -113 -51 0 -19 4 -24 18 -21
9 3 97 24 195 48 176 43 177 44 177 71 0 22 -6 29 -32 38 -40 12 -344 91 -352
91 -3 0 -6 -11 -6 -24z"/>
<path d="M1825 3831 c-85 -39 -104 -88 -105 -263 l0 -128 345 0 345 0 0 60 0
60 -145 0 -145 0 0 49 c0 37 6 57 23 76 21 25 28 27 145 32 l122 6 0 61 0 61
-130 -6 c-132 -7 -166 -17 -196 -58 -10 -13 -16 -11 -43 17 -53 53 -143 67
-216 33z m165 -129 c16 -13 23 -32 27 -80 l6 -62 -103 0 -102 0 4 61 c4 49 9
66 27 80 31 25 111 26 141 1z"/>
<path d="M4770 3790 l0 -30 255 0 255 0 0 30 0 30 -255 0 -255 0 0 -30z"/>
<path d="M10270 3735 l0 -75 -195 0 -195 0 0 -45 0 -45 230 0 230 0 0 120 0
120 -35 0 -35 0 0 -75z"/>
<path d="M4090 3750 l0 -50 100 0 101 0 -3 -62 -3 -63 -97 -3 -98 -3 0 -44 0
-45 250 0 250 0 0 45 0 44 -112 3 -113 3 -3 62 -3 62 113 3 113 3 0 45 0 45
-247 3 -248 2 0 -50z"/>
<path d="M10561 3752 c-55 -27 -76 -64 -76 -132 0 -72 21 -105 91 -140 45 -23
60 -25 184 -25 118 0 141 3 183 22 39 18 52 31 69 69 36 83 11 167 -63 205
-59 30 -79 26 -79 -15 0 -29 4 -34 30 -39 42 -9 70 -41 70 -80 0 -60 -49 -87
-173 -94 -162 -10 -257 26 -257 95 0 38 21 64 61 77 28 10 35 17 37 43 3 28 0
32 -20 32 -13 0 -38 -8 -57 -18z"/>
<path d="M2610 3614 l0 -114 225 0 226 0 -3 113 c-3 108 -4 112 -25 115 -22 3
-23 1 -23 -82 l0 -86 -85 0 -85 0 0 81 c0 78 -1 80 -22 77 -21 -3 -23 -9 -26
-80 l-3 -78 -64 0 -64 0 -3 83 c-3 77 -4 82 -25 83 -23 1 -23 -1 -23 -112z"/>
<path d="M4770 3560 l0 -140 24 0 c23 0 25 4 28 53 l3 52 228 3 227 2 0 30 0
30 -227 2 -228 3 -3 53 c-3 48 -5 52 -28 52 l-24 0 0 -140z"/>
<path d="M5440 3341 l0 -321 35 0 35 0 0 145 0 145 59 0 c33 0 67 -3 76 -6 30
-12 45 -60 45 -142 0 -44 3 -94 6 -111 6 -27 11 -31 39 -31 l33 0 -5 113 c-5
131 -16 172 -49 193 l-24 16 26 21 c77 60 69 217 -12 268 -27 17 -56 22 -149
26 l-115 6 0 -322z m204 245 c53 -22 71 -96 40 -161 -18 -39 -55 -55 -125 -55
l-49 0 0 115 0 115 50 0 c28 0 66 -6 84 -14z"/>
<path d="M5986 3643 c-10 -36 -134 -549 -141 -586 l-7 -38 33 3 33 3 24 98 24
97 84 0 83 0 22 -100 23 -100 39 0 c32 0 37 3 33 18 -3 9 -35 136 -71 282 -36
146 -70 282 -76 303 -9 36 -11 37 -54 37 -33 0 -45 -4 -49 -17z m114 -345 c0
-3 -29 -8 -65 -10 -43 -2 -65 1 -65 8 0 10 39 192 56 264 5 18 16 -14 40 -115
18 -77 33 -143 34 -147z"/>
<path d="M6380 3638 c-73 -50 -90 -171 -33 -238 14 -17 59 -49 99 -71 98 -54
124 -86 124 -151 0 -42 -5 -54 -30 -80 -28 -27 -36 -30 -76 -25 -54 6 -81 28
-94 79 -10 35 -14 38 -46 38 -35 0 -35 -1 -29 -32 24 -112 110 -166 224 -138
80 19 121 76 121 171 0 94 -31 131 -180 212 -59 32 -86 79 -76 132 9 45 39 70
88 70 45 0 75 -27 85 -77 5 -24 10 -28 39 -28 39 0 44 18 20 73 -25 59 -59 81
-134 85 -58 3 -72 0 -102 -20z"/>
<path d="M6735 3649 c-3 -8 -4 -151 -3 -319 l3 -305 35 0 35 0 3 138 3 137 73
0 c80 0 119 18 159 72 29 38 34 126 12 184 -28 74 -69 94 -204 101 -90 5 -112
3 -116 -8z m201 -64 c61 -25 82 -125 40 -190 -17 -26 -70 -45 -128 -45 l-38 0
0 125 0 125 45 0 c25 0 61 -7 81 -15z"/>
<path d="M7160 3657 c-3 -3 -4 -147 -2 -321 l3 -316 97 0 c114 0 171 22 209
78 48 72 38 181 -22 238 l-34 32 25 23 c46 43 54 137 17 200 -28 47 -66 61
-182 66 -58 3 -108 3 -111 0z m194 -71 c40 -17 61 -62 53 -113 -10 -60 -36
-78 -115 -78 l-67 0 -3 89 c-2 49 -1 95 2 103 7 17 87 17 130 -1z m29 -276
c56 -44 59 -149 7 -202 -26 -25 -35 -28 -99 -28 l-71 0 0 125 0 125 69 0 c53
0 74 -4 94 -20z"/>
<path d="M7590 3340 l0 -320 150 0 150 0 0 30 0 30 -115 0 -115 0 0 125 0 125
105 0 105 0 0 30 0 30 -105 0 -105 0 0 100 0 100 110 0 110 0 0 35 0 35 -145
0 -145 0 0 -320z"/>
<path d="M7975 3649 c-3 -8 -4 -151 -3 -319 l3 -305 35 0 35 0 3 143 3 142 63
0 c54 0 66 -3 86 -25 21 -22 24 -37 29 -142 l6 -118 35 -3 35 -3 -2 78 c-6
150 -12 182 -44 218 -29 33 -30 34 -10 45 53 28 73 155 35 221 -33 56 -71 71
-194 77 -88 4 -111 2 -115 -9z m232 -84 c33 -38 33 -123 -1 -161 -20 -24 -32
-28 -90 -32 l-66 -4 0 117 0 118 67 -6 c57 -4 71 -9 90 -32z"/>
<path d="M8410 3341 l0 -321 35 0 35 0 0 145 0 145 59 0 c33 0 67 -3 76 -6 30
-12 45 -60 45 -142 0 -44 3 -94 6 -111 6 -27 11 -31 39 -31 l33 0 -5 113 c-5
131 -16 172 -49 193 l-24 16 26 21 c77 60 69 217 -12 268 -27 17 -56 22 -149
26 l-115 6 0 -322z m205 245 c61 -26 73 -136 20 -186 -20 -19 -40 -25 -90 -28
l-65 -4 0 116 0 116 50 0 c28 0 66 -6 85 -14z"/>
<path d="M8847 3653 c-4 -3 -7 -147 -7 -320 l0 -313 35 0 35 0 0 320 0 320
-28 0 c-16 0 -32 -3 -35 -7z"/>
<path d="M9047 3654 c-4 -4 -7 -148 -7 -321 l0 -313 150 0 c123 0 150 3 150
14 0 8 3 21 6 30 5 14 -9 16 -115 16 l-122 0 3 123 3 122 105 5 c104 5 105 5
105 30 0 25 0 25 -107 28 l-108 3 0 99 0 99 113 3 112 3 0 30 0 30 -141 3
c-77 1 -143 -1 -147 -4z"/>
<path d="M9505 3649 c-64 -37 -92 -98 -80 -176 8 -58 43 -96 129 -143 105 -58
121 -78 121 -152 0 -54 -3 -62 -29 -85 -25 -21 -37 -24 -73 -20 -53 6 -80 28
-93 79 -10 35 -14 38 -46 38 -35 0 -35 -1 -29 -32 21 -99 73 -143 170 -143
108 0 166 53 173 159 7 101 -27 148 -151 213 -83 44 -110 80 -103 136 8 66 52
96 113 76 33 -10 63 -51 63 -84 0 -11 10 -15 35 -15 40 0 45 17 21 73 -25 60
-59 81 -134 84 -38 2 -76 -1 -87 -8z"/>
<path d="M10 3255 l0 -285 50 0 50 0 0 90 c0 77 3 96 23 125 12 19 26 34 31
32 4 -1 31 -58 60 -125 l51 -122 116 0 116 0 12 70 13 70 69 0 c47 0 71 -4 74
-12 2 -7 9 -39 15 -70 l11 -58 55 0 c37 0 54 4 53 13 0 6 -31 134 -68 282
l-67 270 -69 0 -69 0 -12 -45 c-7 -25 -35 -142 -64 -260 -64 -265 -60 -254
-70 -244 -4 5 -40 80 -79 168 -82 182 -85 145 21 294 32 45 58 84 58 87 0 3
-27 5 -60 5 l-59 0 -78 -127 -78 -126 -3 126 -3 127 -49 0 -50 0 0 -285z m639
-42 c1 -9 -15 -13 -48 -13 l-48 0 18 93 c31 154 29 153 55 37 12 -58 23 -111
23 -117z"/>
<path d="M870 3255 l0 -285 150 0 150 0 0 24 c0 13 3 31 6 40 5 13 -9 16 -98
18 l-103 3 -3 243 -2 242 -50 0 -50 0 0 -285z"/>
<path d="M1230 3255 l0 -285 154 0 c151 0 154 0 160 23 15 57 15 57 -99 57
l-105 0 0 85 0 85 95 0 95 0 0 45 0 45 -95 0 -95 0 0 70 0 70 100 0 100 0 0
45 0 45 -155 0 -155 0 0 -285z"/>
<path d="M9939 3497 c-48 -33 -59 -60 -59 -159 l0 -88 230 0 230 0 0 40 0 40
-95 0 -95 0 0 50 c0 28 -7 65 -16 81 -30 59 -133 78 -195 36z m133 -75 c5 -5
12 -28 15 -51 l6 -41 -72 0 -71 0 0 39 c0 50 29 75 79 67 19 -3 38 -9 43 -14z"/>
<path d="M2610 3421 c0 -33 -10 -30 217 -73 68 -13 123 -26 123 -30 0 -5 -6
-8 -12 -8 -7 1 -84 -14 -170 -32 -157 -32 -158 -32 -158 -59 0 -18 6 -30 18
-33 42 -13 294 -66 313 -66 39 0 9 -17 -42 -23 -28 -4 -104 -16 -170 -28
l-119 -23 0 -32 c0 -23 4 -32 13 -29 6 3 107 25 222 48 l210 44 0 29 c0 32 9
29 -245 86 l-105 23 160 33 c208 43 195 38 195 73 0 16 -1 29 -3 29 -6 0 -412
91 -429 96 -14 4 -18 -1 -18 -25z"/>
<path d="M4165 3401 c-56 -25 -79 -63 -79 -131 -1 -114 67 -169 222 -178 118
-6 194 10 240 53 34 31 36 37 40 101 4 85 -17 126 -81 154 -62 28 -67 26 -67
-25 0 -42 2 -46 35 -59 40 -17 50 -35 41 -70 -10 -41 -76 -59 -199 -54 -119 4
-157 20 -157 66 0 37 11 51 46 61 16 4 28 10 27 14 -2 4 -3 25 -3 47 0 46 -7
48 -65 21z"/>
<path d="M11187 3383 c-4 -3 -7 -19 -7 -35 0 -27 2 -28 50 -28 l50 0 0 -181 0
-180 38 3 37 3 3 178 2 177 45 0 c45 0 45 0 45 35 l0 35 -128 0 c-71 0 -132
-3 -135 -7z"/>
<path d="M11500 3175 l0 -216 38 3 37 3 3 93 3 92 49 0 50 0 0 -95 0 -95 40 0
40 0 0 216 0 215 -37 -3 -38 -3 -3 -82 -3 -83 -49 0 -49 0 -3 83 -3 82 -37 3
-38 3 0 -216z"/>
<path d="M11800 3383 c0 -5 25 -67 55 -137 51 -119 55 -132 55 -207 l0 -79 40
0 40 0 0 79 c0 75 4 88 55 207 30 70 55 132 55 136 0 4 -17 8 -39 8 l-38 0
-35 -96 -34 -97 -35 94 -34 94 -43 3 c-23 2 -42 -1 -42 -5z"/>
<path d="M12140 3175 l0 -215 35 0 36 0 -3 165 c-2 90 0 161 3 157 3 -4 16
-70 28 -147 29 -184 26 -175 66 -175 38 0 30 -22 80 228 l23 117 1 -172 1
-173 35 0 35 0 0 205 c0 113 0 208 0 213 0 4 -24 8 -55 10 -50 3 -55 1 -60
-20 -3 -13 -16 -74 -28 -135 -13 -62 -26 -115 -29 -118 -3 -3 -11 29 -17 72
-7 43 -18 105 -24 138 l-13 60 -57 3 -57 3 0 -216z"/>
<path d="M12560 3175 l0 -215 114 0 c109 0 114 1 120 23 12 46 10 47 -74 47
l-80 0 0 60 0 60 70 0 70 0 0 35 0 35 -70 0 -70 0 0 50 0 50 75 0 75 0 0 35 0
35 -115 0 -115 0 0 -215z"/>
<path d="M4770 3340 l0 -30 198 0 197 0 -195 -78 -195 -78 -3 -37 -3 -37 255
0 256 0 0 25 0 25 -207 2 -208 3 208 80 208 80 -3 35 -3 35 -252 3 -253 2 0
-30z"/>
<path d="M10598 3354 c-88 -27 -133 -104 -113 -194 10 -45 64 -94 121 -111 61
-17 243 -18 301 -1 162 48 162 259 0 307 -65 19 -245 19 -309 -1z m282 -65
c77 -18 111 -72 80 -129 -39 -74 -371 -74 -410 0 -29 53 2 109 70 128 47 14
204 14 260 1z"/>
<path d="M1720 3185 l0 -175 345 0 345 0 0 60 0 60 -145 0 -144 0 -3 108 -3
107 -52 3 -53 3 0 -110 0 -111 -90 0 -90 0 0 115 0 115 -55 0 -55 0 0 -175z"/>
<path d="M9961 3187 c-59 -21 -76 -55 -79 -163 l-4 -94 231 0 231 0 0 40 0 40
-95 0 -95 0 0 48 c0 26 -6 58 -13 71 -28 55 -110 82 -176 58z m113 -99 c9 -12
16 -35 16 -50 0 -28 0 -28 -70 -28 l-70 0 0 40 c0 45 16 59 72 60 27 0 41 -6
52 -22z"/>
<path d="M4328 2998 l-238 -60 0 -63 0 -62 238 -58 c130 -32 243 -60 250 -63
10 -3 12 7 10 44 l-3 49 -62 14 -63 14 0 63 0 62 38 6 c98 17 92 13 92 67 0
33 -4 49 -12 48 -7 0 -120 -28 -250 -61z m49 -164 c-4 -4 -189 34 -195 40 -1
2 41 12 95 23 l98 19 3 -39 c2 -22 1 -41 -1 -43z"/>
<path d="M4777 3003 c-4 -3 -7 -57 -7 -120 l0 -113 255 0 255 0 0 120 0 120
-30 0 -30 0 0 -90 0 -90 -90 0 -89 0 -3 83 c-3 81 -3 82 -30 85 l-28 3 0 -85
0 -86 -80 0 -80 0 0 90 c0 81 -2 90 -18 90 -10 0 -22 -3 -25 -7z"/>
<path d="M10560 2943 c-54 -28 -70 -71 -70 -185 l0 -98 265 0 265 0 0 35 0 35
-120 0 -120 0 0 50 c0 41 5 56 25 75 21 22 33 25 97 25 104 0 118 6 118 45 l0
32 -82 -4 c-121 -6 -146 -11 -165 -38 l-18 -23 -31 29 c-40 39 -113 49 -164
22z m139 -77 c9 -9 18 -41 21 -76 l6 -60 -94 0 -94 0 4 57 c4 46 10 61 33 81
23 20 36 23 68 19 22 -3 47 -13 56 -21z"/>
<path d="M2923 2843 c-61 -12 -97 -93 -71 -161 11 -29 28 -46 83 -79 79 -47
105 -85 89 -130 -22 -64 -104 -69 -130 -8 -11 27 -20 35 -40 35 -24 0 -26 -3
-20 -32 3 -18 16 -42 28 -55 24 -26 86 -46 114 -37 85 27 104 52 104 132 0 62
-21 90 -103 138 -71 42 -77 48 -77 90 0 72 97 88 114 19 5 -20 13 -25 35 -25
28 0 29 1 21 31 -12 41 -28 59 -67 76 -33 13 -40 14 -80 6z"/>
<path d="M5438 2844 c-5 -4 -8 -110 -8 -236 l0 -228 55 0 55 0 0 89 0 89 56 7
c83 10 116 43 122 122 8 115 -36 154 -183 161 -49 2 -93 1 -97 -4z m157 -88
c13 -9 19 -26 19 -50 0 -41 -8 -52 -46 -61 l-28 -7 0 66 c0 57 2 66 18 66 10
0 27 -6 37 -14z"/>
<path d="M5770 2615 l0 -235 50 0 50 0 0 95 0 95 29 0 c17 0 33 -6 38 -12 4
-7 10 -49 13 -93 l5 -80 54 -3 54 -3 -7 47 c-3 26 -6 68 -6 94 0 33 -6 53 -21
69 l-21 22 23 26 c20 20 24 35 24 84 0 50 -4 62 -26 84 -32 32 -81 44 -181 45
l-78 0 0 -235z m161 145 c14 -8 19 -21 19 -51 0 -32 -4 -41 -24 -51 -41 -18
-56 -5 -56 50 0 64 15 76 61 52z"/>
<path d="M6117 2844 c-4 -4 -7 -88 -7 -187 0 -201 8 -235 64 -264 44 -24 132
-22 173 2 57 33 63 61 63 270 l0 186 -52 -3 -53 -3 -6 -190 c-3 -104 -6 -191
-7 -192 -6 -9 -51 -1 -61 10 -6 8 -12 81 -13 193 l-3 179 -45 3 c-25 2 -49 0
-53 -4z"/>
<path d="M6474 2837 c-2 -7 -3 -111 -2 -232 l3 -220 48 -3 48 -3 -3 145 c-2
79 -1 142 2 140 2 -3 23 -67 45 -142 l41 -137 57 -3 57 -3 0 236 0 235 -45 0
-45 0 -1 -137 -1 -138 -44 138 -45 137 -55 0 c-35 0 -56 -5 -60 -13z"/>
<path d="M6847 2843 c-4 -3 -7 -109 -7 -235 l0 -228 124 0 c135 0 136 0 136
61 l0 29 -75 0 -75 0 0 55 0 55 71 0 70 0 -3 43 -3 42 -67 3 -68 3 0 44 0 45
70 0 70 0 0 45 0 45 -118 0 c-65 0 -122 -3 -125 -7z"/>
<path d="M9493 2830 c-42 -25 -63 -68 -63 -128 0 -68 28 -105 120 -157 57 -32
79 -51 94 -79 35 -71 -1 -141 -74 -141 -47 0 -67 16 -82 66 -10 34 -15 39 -40
39 -16 0 -31 -6 -34 -15 -10 -25 16 -83 52 -115 31 -27 41 -30 104 -30 60 0
72 3 101 27 37 32 59 78 59 128 0 76 -43 131 -141 180 -66 34 -89 61 -89 105
0 53 23 80 69 80 42 0 65 -19 76 -62 6 -24 12 -28 41 -28 40 0 43 14 15 77
-12 25 -32 48 -50 57 -42 22 -119 20 -158 -4z"/>
<path d="M9880 2810 l0 -40 180 0 c167 0 181 -1 200 -20 21 -21 25 -47 12 -66
-19 -28 -56 -34 -221 -34 l-171 0 0 -40 0 -40 188 0 c170 0 190 2 220 20 84
52 79 202 -9 247 -16 9 -83 13 -211 13 l-188 0 0 -40z"/>
<path d="M0 2610 l0 -230 30 0 30 0 0 105 0 105 40 0 c62 0 80 -24 80 -109 0
-86 6 -101 37 -101 l25 0 -4 90 c-3 71 -9 96 -25 118 l-21 28 24 27 c28 33 33
101 9 146 -19 37 -60 51 -151 51 l-74 0 0 -230z m154 174 c24 -9 39 -66 26
-100 -14 -37 -26 -44 -77 -44 l-43 0 0 75 0 75 39 0 c22 0 46 -3 55 -6z"/>
<path d="M314 2827 c-2 -7 -3 -109 -2 -227 l3 -215 104 -3 c77 -2 107 1 113
10 20 32 9 38 -77 38 l-85 0 0 85 0 85 75 0 c73 0 75 1 75 25 0 24 -2 25 -75
25 l-75 0 0 70 0 70 80 0 c79 0 80 0 80 25 l0 25 -105 0 c-76 0 -107 -4 -111
-13z"/>
<path d="M594 2827 c-2 -7 -3 -109 -2 -227 l3 -215 55 -3 c100 -6 159 26 187
101 6 18 12 77 12 132 2 170 -43 225 -182 225 -46 0 -69 -4 -73 -13z m159 -57
c34 -27 52 -110 42 -199 -11 -107 -38 -141 -109 -141 l-36 0 0 180 0 180 39 0
c23 0 48 -8 64 -20z"/>
<path d="M1060 2610 l0 -230 25 0 c24 0 24 1 27 98 l3 97 62 6 c34 3 69 12 78
19 44 37 59 125 29 181 -21 41 -68 59 -154 59 l-70 0 0 -230z m162 163 c12
-11 18 -30 18 -63 0 -59 -21 -80 -81 -83 l-44 -2 -3 83 -3 82 47 0 c30 0 54
-6 66 -17z"/>
<path d="M1360 2610 l0 -230 110 0 110 0 0 25 c0 25 -1 25 -80 25 l-80 0 0 85
0 85 75 0 c73 0 75 1 75 25 0 24 -2 25 -75 25 l-75 0 0 70 0 70 80 0 c79 0 80
0 80 25 l0 25 -110 0 -110 0 0 -230z"/>
<path d="M1640 2611 l0 -231 30 0 30 0 0 100 0 100 50 0 c71 0 105 20 125 74
22 57 14 106 -25 149 -27 31 -31 32 -119 35 l-91 4 0 -231z m170 157 c25 -27
27 -88 3 -117 -12 -14 -35 -23 -65 -27 l-48 -7 0 87 0 86 45 0 c33 0 50 -6 65
-22z"/>
<path d="M1950 2610 l0 -230 25 0 c24 0 24 1 27 98 l3 97 63 6 c85 8 113 35
120 112 8 105 -37 147 -163 147 l-75 0 0 -230z m165 160 c11 -12 18 -35 18
-61 0 -54 -25 -79 -84 -82 l-44 -2 -3 83 -3 82 49 0 c36 0 54 -5 67 -20z"/>
<path d="M2250 2610 l0 -230 109 0 c108 0 109 0 113 25 l5 25 -83 0 -84 0 0
85 0 85 75 0 c73 0 75 1 75 25 0 24 -2 25 -75 25 l-75 0 0 70 0 70 80 0 c79 0
80 0 80 25 l0 25 -110 0 -110 0 0 -230z"/>
<path d="M2530 2610 l0 -230 30 0 30 0 0 105 0 105 38 0 c63 0 82 -21 82 -89
0 -96 8 -121 39 -121 l26 0 -5 95 c-5 80 -9 99 -27 117 -21 21 -21 21 -2 37
27 22 41 86 28 134 -15 58 -54 77 -156 77 l-83 0 0 -230z m171 159 c17 -17 20
-29 16 -62 -7 -50 -28 -67 -84 -67 l-43 0 0 75 0 75 45 0 c32 0 51 -6 66 -21z"/>
<path d="M7555 2831 c-33 -14 -70 -57 -104 -121 -43 -81 -88 -102 -125 -61
-26 29 -17 63 21 81 29 14 33 19 33 59 l0 44 -32 -7 c-69 -14 -108 -65 -108
-143 0 -89 64 -148 153 -140 58 5 96 37 134 112 14 28 32 58 40 67 23 26 70
32 99 13 21 -13 25 -23 22 -53 -3 -32 -9 -40 -40 -55 -34 -17 -38 -22 -38 -58
0 -36 2 -39 28 -39 34 0 86 31 108 65 25 38 24 131 -1 175 -34 58 -125 87
-190 61z"/>
<path d="M7910 2555 l0 -285 35 0 35 0 0 125 0 125 63 0 c113 0 170 53 170
159 0 67 -22 114 -66 141 -26 16 -50 20 -134 20 l-103 0 0 -285z m208 201 c34
-33 35 -116 1 -152 -19 -20 -32 -24 -81 -24 l-58 0 0 98 c0 54 3 102 8 106 15
16 106 -3 130 -28z"/>
<path d="M8290 2555 l0 -285 134 0 c130 0 134 1 140 23 3 12 6 25 6 30 0 4
-47 7 -105 7 l-105 0 0 105 0 105 96 0 95 0 -3 33 -3 32 -92 3 -93 3 0 84 0
85 100 0 100 0 0 30 0 30 -135 0 -135 0 0 -285z"/>
<path d="M8746 2823 c-15 -52 -126 -528 -126 -540 0 -10 9 -13 32 -11 32 3 33
5 53 88 l20 85 71 3 72 3 12 -53 c30 -133 27 -128 66 -128 42 0 46 -27 -40
316 l-62 249 -46 3 c-38 2 -47 0 -52 -15z m99 -275 l7 -38 -57 0 c-54 0 -57 1
-52 23 3 12 16 71 28 131 l23 110 22 -95 c13 -52 26 -111 29 -131z"/>
<path d="M9042 2558 l3 -283 33 -3 32 -3 0 130 0 131 54 0 c89 0 100 -16 106
-147 l5 -108 34 0 34 0 -2 90 c-2 109 -15 159 -43 179 l-22 15 27 25 c66 61
53 202 -23 241 -20 11 -60 15 -135 15 l-105 0 2 -282z m170 222 c45 -13 58
-34 58 -95 0 -67 -30 -95 -105 -95 l-55 0 0 93 c0 52 3 97 7 100 9 10 53 8 95
-3z"/>
<path d="M11830 2808 c-51 -26 -69 -66 -54 -119 16 -54 53 -73 151 -78 48 -2
103 2 124 8 100 30 106 156 9 195 -62 25 -175 21 -230 -6z m202 -48 c58 -17
61 -60 6 -79 -38 -13 -148 -14 -181 -2 -27 10 -39 33 -31 56 12 31 132 45 206
25z"/>
<path d="M11200 2770 l0 -40 85 0 85 0 0 -55 0 -55 -85 0 -85 0 0 -35 0 -35
220 0 220 0 0 35 0 34 -97 3 -98 3 -3 53 -3 52 100 0 101 0 0 40 0 40 -220 0
-220 0 0 -40z"/>
<path d="M4772 2678 l3 -31 205 -49 c113 -26 209 -49 214 -51 5 -2 -31 -11
-80 -21 -49 -9 -146 -31 -216 -47 l-128 -31 0 -32 0 -33 198 49 c108 27 222
54 252 61 l55 12 0 39 0 39 -245 63 c-135 35 -249 64 -253 64 -5 0 -7 -14 -5
-32z"/>
<path d="M4090 2594 l0 -46 164 4 c91 2 164 2 162 0 -2 -1 -75 -31 -162 -66
l-159 -64 -3 -56 -3 -56 248 2 248 3 0 40 0 40 -173 0 c-96 0 -168 4 -160 8 7
5 85 37 173 71 l160 62 3 52 3 52 -250 0 -251 0 0 -46z"/>
<path d="M10813 2569 c-17 -5 -43 -23 -57 -39 l-25 -30 -24 24 c-53 53 -151
41 -194 -23 -20 -30 -23 -46 -23 -137 l0 -104 265 0 265 0 0 97 c0 111 -20
167 -68 195 -37 22 -98 30 -139 17z m101 -73 c38 -16 56 -55 56 -122 l0 -44
-105 0 -105 0 0 45 c0 68 22 112 62 124 46 13 54 13 92 -3z m-233 -25 c18 -14
23 -31 27 -80 l4 -62 -83 3 -84 3 0 59 c1 49 4 61 24 77 30 24 82 24 112 0z"/>
<path d="M11780 2530 l0 -30 113 -1 112 0 -112 -41 -113 -41 0 -38 0 -39 170
0 170 0 0 30 0 29 -116 3 -116 3 113 41 114 41 3 37 3 36 -170 0 -171 0 0 -30z"/>
<path d="M10160 2507 c-34 -12 -48 -29 -115 -139 -34 -56 -110 -47 -103 11 2
17 13 31 31 39 23 11 27 19 27 53 0 38 -1 39 -27 33 -85 -20 -122 -97 -87
-182 20 -51 55 -72 118 -72 57 0 91 28 134 108 18 33 39 63 48 66 26 10 69 7
82 -6 30 -30 1 -98 -41 -98 -13 0 -17 -9 -17 -40 0 -37 2 -40 29 -40 54 0 111
69 111 134 0 40 -29 103 -55 120 -33 22 -94 28 -135 13z"/>
<path d="M11200 2364 l0 -135 33 3 c31 3 32 5 35 51 l3 47 185 0 184 0 0 40 0
40 -185 0 -185 0 0 45 c0 45 0 45 -35 45 l-35 0 0 -136z"/>
<path d="M7680 2401 l0 -91 -75 0 -75 0 0 80 0 80 -40 0 -40 0 0 -80 0 -80
-60 0 -59 0 -3 83 -3 82 -37 3 -38 3 0 -130 0 -131 255 0 255 0 0 130 c0 117
-2 130 -17 130 -10 0 -28 3 -40 6 -23 6 -23 5 -23 -85z"/>
<path d="M5220 2255 l0 -95 -90 0 -90 0 0 85 0 85 -30 0 -30 0 0 -85 0 -86
-77 3 -78 3 -3 88 c-3 85 -3 87 -27 87 l-25 0 0 -120 0 -120 255 0 255 0 0
119 c0 115 -1 119 -22 125 -13 3 -26 6 -30 6 -5 0 -8 -43 -8 -95z"/>
<path d="M11940 2272 l-155 -37 -3 -42 -3 -41 138 -32 c76 -18 153 -36 171
-40 31 -8 32 -8 32 25 0 30 -3 33 -40 39 -39 6 -40 7 -40 46 0 35 3 40 28 46
49 10 52 13 52 44 0 18 -5 30 -12 29 -7 0 -83 -17 -168 -37z m40 -83 c0 -24
-4 -29 -17 -25 -10 3 -36 8 -58 12 -75 13 -63 20 68 43 4 0 7 -13 7 -30z"/>
<path d="M11570 2206 l0 -76 -185 0 -185 0 0 -40 0 -40 220 0 221 0 -3 113 -3
112 -32 3 -33 3 0 -75z"/>
<path d="M5430 2086 l0 -176 35 0 35 0 0 70 0 70 30 0 c72 0 118 55 107 127
-10 61 -35 77 -127 81 l-80 4 0 -176z m137 98 c15 -24 15 -29 2 -53 -11 -19
-23 -26 -43 -26 -28 0 -29 2 -28 48 0 26 1 49 1 52 1 3 12 5 26 5 15 0 31 -10
42 -26z"/>
<path d="M5680 2121 c0 -77 4 -151 10 -166 22 -58 130 -70 179 -20 25 25 26
30 29 175 l4 150 -36 0 -35 0 -3 -147 -3 -148 -30 -3 c-48 -6 -55 15 -55 165
l0 133 -30 0 -30 0 0 -139z"/>
<path d="M5960 2085 l0 -175 25 0 24 0 3 138 3 137 18 -110 c29 -176 25 -165
57 -165 28 0 28 0 49 118 12 64 23 124 25 132 2 8 4 -45 5 -117 l1 -133 30 0
30 0 0 175 0 175 -44 0 c-51 0 -47 8 -72 -132 -10 -54 -19 -96 -21 -94 -2 1
-8 29 -13 62 -6 32 -15 83 -21 112 l-10 52 -45 0 -44 0 0 -175z"/>
<path d="M6290 2086 l0 -176 35 0 35 0 0 70 0 70 30 0 c43 0 89 26 100 56 17
44 12 91 -14 121 -22 25 -31 28 -105 31 l-81 4 0 -176z m134 108 c9 -8 16 -23
16 -32 0 -29 -30 -62 -56 -62 -23 0 -24 3 -24 55 0 52 2 55 24 55 14 0 32 -7
40 -16z"/>
<path d="M6540 2085 l0 -175 30 0 c30 0 30 0 30 58 1 55 21 104 37 88 4 -4 20
-38 34 -74 25 -64 28 -67 63 -70 42 -4 43 -13 -19 126 l-37 84 46 69 46 69
-37 0 c-37 0 -40 -3 -83 -78 l-45 -77 -3 78 -3 77 -29 0 -30 0 0 -175z"/>
<path d="M6790 2085 l0 -175 35 0 35 0 0 175 0 175 -35 0 -35 0 0 -175z"/>
<path d="M6920 2086 l0 -176 31 0 31 0 -3 119 c-2 66 -2 117 1 115 2 -3 23
-55 45 -117 l40 -112 38 -3 37 -3 0 175 0 176 -30 0 -30 0 0 -117 -1 -118 -43
115 -42 115 -37 3 -37 3 0 -175z"/>
<path d="M4090 2170 l0 -50 248 2 247 3 0 45 0 45 -247 3 -248 2 0 -50z"/>
<path d="M7250 2079 l0 -49 253 2 252 3 0 45 0 45 -252 2 -253 2 0 -50z"/>
<path d="M7918 2071 c-28 -25 -33 -36 -33 -74 0 -52 25 -86 88 -118 53 -28 77
-54 77 -87 0 -83 -100 -100 -125 -22 -4 13 -15 20 -31 20 -28 0 -30 -10 -9
-55 18 -37 51 -55 101 -55 77 0 122 53 111 131 -7 50 -26 72 -95 112 -59 33
-80 67 -63 104 21 47 82 39 102 -14 5 -14 17 -23 29 -23 31 0 26 46 -9 81 -41
41 -98 41 -143 0z"/>
<path d="M10887 2084 c-15 -8 -32 -26 -37 -40 -25 -66 0 -123 68 -158 75 -38
101 -80 83 -129 -19 -51 -104 -45 -117 8 -4 18 -13 25 -30 25 -28 0 -31 -18
-9 -60 20 -38 43 -50 99 -50 129 0 157 159 39 226 -69 39 -93 64 -93 94 0 64
81 79 103 20 8 -21 18 -30 34 -30 27 0 29 19 8 61 -25 48 -92 63 -148 33z"/>
<path d="M8120 2070 c0 -17 7 -20 45 -20 l45 0 2 -182 c3 -181 3 -183 25 -186
23 -3 23 -3 25 180 l3 183 48 3 c39 3 47 6 47 23 0 18 -8 19 -120 19 -113 0
-120 -1 -120 -20z"/>
<path d="M8400 1885 l0 -205 25 0 c25 0 25 0 25 95 l0 95 38 0 c56 0 72 -22
72 -101 0 -71 9 -93 35 -87 16 3 18 13 16 77 -3 79 -12 116 -32 123 -9 3 -7
11 8 28 29 30 37 72 23 115 -17 53 -42 65 -132 65 l-78 0 0 -205z m151 149 c7
-9 13 -32 13 -51 0 -44 -32 -73 -80 -73 l-34 0 0 70 0 70 44 0 c28 0 48 -6 57
-16z"/>
<path d="M8707 1893 c-26 -109 -47 -202 -47 -206 0 -5 10 -7 23 -5 18 2 24 14
36 66 l15 62 52 0 53 0 13 -62 c13 -57 17 -63 41 -66 15 -2 27 0 27 5 -1 4
-23 96 -49 203 l-49 195 -34 3 -34 3 -47 -198z m101 49 c11 -45 17 -84 14 -87
-3 -3 -21 -5 -40 -5 l-35 0 7 40 c11 67 28 142 32 138 2 -2 12 -41 22 -86z"/>
<path d="M8921 2078 c0 -7 17 -98 38 -203 37 -188 38 -190 64 -193 15 -2 27
-1 27 1 0 6 60 297 64 312 1 5 15 -56 30 -135 36 -187 33 -180 61 -180 29 0
25 -11 74 223 l39 187 -24 0 c-27 0 -26 4 -60 -180 l-28 -145 -30 160 c-30
155 -32 160 -57 163 -29 3 -23 19 -71 -212 l-22 -109 -27 159 c-15 87 -28 160
-28 162 -3 9 -51 -1 -50 -10z"/>
<path d="M9362 1888 l3 -203 40 -3 c103 -9 168 25 181 94 8 45 -2 81 -30 109
-23 23 -23 24 -5 41 30 27 26 108 -6 139 -22 22 -32 25 -105 25 l-80 0 2 -202z
m157 128 c12 -26 12 -33 0 -55 -15 -27 -67 -48 -93 -38 -12 5 -16 21 -16 67
l0 61 47 -3 c42 -3 50 -7 62 -32z m-13 -144 c22 -14 36 -54 30 -87 -8 -43 -21
-52 -76 -56 l-45 -4 -3 78 -3 77 43 0 c24 0 48 -4 54 -8z"/>
<path d="M9650 1885 l0 -205 94 0 c84 0 94 2 99 19 3 11 2 22 -1 25 -3 3 -39
6 -79 6 l-74 0 3 73 3 72 68 3 c58 3 67 5 67 22 0 17 -9 19 -67 22 l-68 3 0
60 0 60 73 3 c64 3 72 5 72 22 0 18 -7 20 -95 20 l-95 0 0 -205z"/>
<path d="M9900 1884 l0 -205 23 3 c21 3 22 8 25 96 l3 92 38 0 c53 0 65 -19
71 -109 5 -69 7 -76 28 -79 21 -3 22 0 22 67 0 70 -12 120 -32 132 -7 5 -4 16
11 34 31 40 30 117 -4 150 -22 22 -32 25 -105 25 l-80 0 0 -206z m144 150 c9
-9 16 -32 16 -54 0 -46 -27 -70 -77 -70 l-33 0 0 70 0 70 39 0 c23 0 46 -7 55
-16z"/>
<path d="M10180 1885 l0 -205 25 0 c25 0 25 0 25 95 l0 95 39 0 c55 0 71 -25
71 -113 0 -51 4 -69 15 -73 35 -14 40 1 34 91 -4 70 -9 90 -24 101 -18 13 -18
15 2 36 30 33 37 79 19 121 -19 48 -41 57 -130 57 l-76 0 0 -205z m150 150 c6
-8 12 -31 12 -52 0 -46 -29 -73 -78 -73 l-34 0 0 70 0 70 44 0 c26 0 48 -6 56
-15z"/>
<path d="M10460 1885 l0 -205 25 0 25 0 0 205 0 205 -25 0 -25 0 0 -205z"/>
<path d="M10592 1888 l3 -203 95 0 c91 0 95 1 98 23 3 21 0 22 -72 22 l-76 0
0 75 0 75 70 0 c63 0 70 2 70 20 0 18 -7 20 -70 20 l-70 0 0 65 0 65 69 0 c60
0 69 2 74 20 5 19 0 20 -94 20 l-99 0 2 -202z"/>
<path d="M4163 2044 c-52 -26 -73 -82 -73 -197 l0 -97 250 0 250 0 0 45 0 44
-102 3 -103 3 -5 65 c-3 40 -12 77 -23 94 -35 52 -129 72 -194 40z m139 -106
c4 -7 8 -32 8 -55 l0 -43 -75 0 -75 0 0 38 c0 45 22 79 53 84 29 5 79 -9 89
-24z"/>
<path d="M11820 2027 c-34 -17 -52 -55 -46 -100 5 -44 18 -62 60 -85 43 -23
198 -23 243 1 53 28 69 80 37 125 -8 12 -10 22 -5 22 6 0 11 11 11 25 0 25 0
25 -95 25 l-95 0 0 -55 c0 -52 1 -55 25 -55 20 0 25 5 25 25 0 21 5 25 28 25
32 0 72 -25 72 -45 0 -29 -42 -45 -122 -45 -42 0 -88 4 -101 9 -42 16 -45 64
-6 76 13 4 19 16 19 36 0 32 -11 36 -50 16z"/>
<path d="M4828 2004 c-44 -24 -58 -62 -58 -164 l0 -90 255 0 255 0 0 30 0 30
-115 0 -115 0 0 54 c0 72 18 86 115 86 99 0 115 6 115 41 l0 29 -82 -5 c-125
-9 -146 -14 -163 -38 -15 -20 -17 -21 -26 -4 -25 44 -126 61 -181 31z m143
-70 c14 -13 19 -31 19 -71 l0 -53 -85 0 -85 0 0 46 c0 53 13 82 43 94 30 13
85 5 108 -16z"/>
<path d="M11405 1961 l-200 -47 -3 -51 -3 -52 38 -10 c50 -13 390 -91 397 -91
3 0 6 18 6 40 0 31 -4 40 -17 40 -10 0 -35 5 -55 11 -37 10 -38 11 -38 59 0
53 0 53 73 66 35 6 37 8 37 45 0 31 -4 39 -17 38 -10 -1 -108 -22 -218 -48z
m55 -106 c0 -32 -2 -35 -22 -30 -13 3 -54 12 -93 19 -53 10 -64 15 -45 19 14
3 43 10 65 15 22 6 52 10 68 11 24 1 27 -2 27 -34z"/>
<path d="M7308 1944 c-46 -25 -58 -61 -58 -179 l0 -105 253 2 252 3 3 43 3 42
-110 0 -111 0 0 39 c0 64 26 78 155 84 l60 2 3 43 3 42 -68 0 c-96 -1 -154
-14 -175 -40 -16 -19 -19 -20 -24 -6 -16 43 -130 61 -186 30z m136 -89 c17
-18 31 -78 21 -94 -3 -6 -37 -11 -76 -11 l-69 0 0 38 c0 55 23 82 70 82 21 0
45 -7 54 -15z"/>
<path d="M11780 1701 l0 -91 170 0 170 0 0 90 c0 89 0 90 -25 90 -24 0 -25 -3
-25 -60 l0 -60 -50 0 -50 0 0 56 c0 54 0 55 -27 52 -26 -3 -28 -7 -31 -55 l-3
-53 -39 0 -39 0 -3 58 c-3 50 -6 57 -25 60 -22 3 -23 1 -23 -87z"/>
<path d="M4369 1657 c-22 -14 -48 -50 -75 -101 -44 -85 -70 -106 -111 -87 -47
21 -38 82 14 102 19 7 23 16 23 54 0 51 -10 56 -66 29 -46 -22 -68 -66 -68
-134 0 -103 53 -157 146 -148 60 6 85 28 128 111 45 86 57 97 100 97 47 0 62
-18 58 -67 -2 -32 -8 -40 -35 -53 -30 -14 -33 -19 -33 -62 l0 -46 38 10 c71
19 102 67 102 158 0 36 -6 74 -15 91 -36 68 -139 91 -206 46z"/>
<path d="M4828 1663 c-43 -27 -58 -70 -58 -167 l0 -86 255 0 255 0 0 30 0 30
-110 0 -110 0 0 50 c0 58 -18 106 -49 135 -32 28 -145 33 -183 8z m135 -52
c29 -11 50 -57 45 -102 l-3 -34 -92 -3 -93 -3 0 51 c0 41 5 56 25 75 26 27 73
33 118 16z"/>
<path d="M11575 1672 c-3 -3 -5 -38 -5 -79 l0 -73 -65 0 -65 0 0 71 0 70 -32
-3 -33 -3 -3 -67 -3 -68 -49 0 -49 0 -3 73 -3 72 -32 3 -33 3 0 -115 0 -116
220 0 220 0 0 114 0 114 -30 4 c-17 3 -32 2 -35 0z"/>
<path d="M2475 1648 c-43 -38 -53 -179 -16 -246 25 -47 90 -54 130 -14 33 32
46 98 36 175 -13 93 -90 137 -150 85z m85 -47 c5 -11 10 -50 10 -86 0 -75 -12
-105 -41 -105 -26 0 -39 37 -39 111 0 69 12 99 40 99 11 0 24 -9 30 -19z"/>
<path d="M3121 1654 c-33 -24 -51 -74 -51 -144 0 -107 41 -163 107 -145 15 4
40 7 56 6 l27 -3 0 81 0 81 -50 0 c-43 0 -50 -3 -50 -20 0 -14 7 -20 21 -20
17 0 20 -5 17 -37 -3 -33 -7 -38 -30 -41 -23 -3 -29 2 -35 25 -12 41 -7 151 7
168 18 22 51 19 57 -5 3 -13 14 -20 29 -20 34 0 32 42 -2 69 -32 25 -71 27
-103 5z"/>
<path d="M3795 1659 c-31 -15 -46 -45 -52 -104 -15 -142 40 -221 128 -184 41
16 59 61 59 144 0 126 -54 183 -135 144z m74 -70 c23 -66 5 -179 -28 -179 -10
0 -23 6 -29 13 -18 21 -25 109 -13 155 10 34 16 42 35 42 18 0 27 -8 35 -31z"/>
<path d="M2670 1515 l0 -145 25 0 c24 0 25 3 25 60 0 60 0 60 29 60 34 0 41
-14 41 -76 0 -40 2 -44 25 -44 24 0 25 3 25 53 0 30 -6 62 -15 74 -13 18 -13
22 0 33 9 8 15 30 15 56 0 58 -24 74 -107 74 l-63 0 0 -145z m115 65 c0 -32
-3 -35 -32 -38 -32 -3 -33 -3 -33 38 0 41 1 41 33 38 29 -3 32 -6 32 -38z"/>
<path d="M2888 1515 l3 -145 75 0 c67 0 74 2 74 20 0 17 -7 20 -50 20 l-50 0
0 45 0 45 45 0 c41 0 45 2 45 25 0 23 -4 25 -45 25 -45 0 -45 0 -45 35 l0 35
50 0 c43 0 50 3 50 20 0 18 -7 20 -77 20 l-78 0 3 -145z"/>
<path d="M3346 1643 c-3 -10 -17 -70 -31 -133 -15 -63 -28 -121 -30 -127 -3
-9 6 -13 25 -13 23 0 30 5 30 19 0 38 11 51 46 51 30 0 34 -3 40 -35 5 -30 10
-35 35 -35 18 0 27 4 24 13 -2 6 -13 55 -25 107 -40 177 -36 170 -75 170 -23
0 -35 -5 -39 -17z m57 -120 c6 -30 4 -33 -18 -33 -14 0 -25 2 -25 5 0 2 5 28
12 57 12 56 15 54 31 -29z"/>
<path d="M3510 1515 l0 -145 25 0 c24 0 24 1 27 103 l3 102 35 -100 c35 -97
37 -100 68 -103 l32 -3 0 145 0 146 -25 0 c-24 0 -24 -2 -27 -92 l-3 -93 -34
93 c-33 91 -34 92 -67 92 l-34 0 0 -145z"/>
<path d="M7308 1574 c-46 -25 -58 -61 -58 -179 l0 -105 255 0 255 0 0 45 0 45
-110 0 -110 0 0 39 c0 65 9 69 185 83 28 3 30 6 33 47 l3 44 -94 -6 c-93 -5
-157 -25 -157 -48 0 -6 -16 3 -35 20 -30 26 -43 31 -88 31 -29 -1 -64 -7 -79
-16z m136 -89 c17 -18 31 -78 21 -94 -3 -6 -37 -11 -76 -11 l-69 0 0 38 c0 55
23 82 70 82 21 0 45 -7 54 -15z"/>
<path d="M11823 1550 c-33 -14 -43 -42 -43 -124 l0 -76 170 0 170 0 0 35 0 35
-75 0 c-78 0 -81 2 -65 44 8 23 15 25 72 28 63 3 63 3 66 34 l3 32 -68 -5
c-41 -4 -75 -12 -86 -21 -12 -11 -21 -13 -25 -6 -19 30 -76 41 -119 24z m79
-62 c9 -7 18 -25 20 -40 5 -27 4 -28 -43 -28 -48 0 -49 1 -49 30 0 42 40 63
72 38z"/>
<path d="M8011 1513 c-6 -21 -28 -112 -51 -203 -22 -91 -43 -173 -46 -182 -5
-15 1 -18 39 -18 44 0 45 1 51 38 13 72 13 72 70 72 l53 0 12 -55 12 -55 45 0
c39 0 45 3 40 18 -3 9 -24 91 -46 182 -23 91 -45 182 -51 203 l-10 37 -54 0
-54 0 -10 -37z m93 -187 l7 -36 -41 0 c-23 0 -39 3 -37 8 2 4 13 43 22 87 l19
80 11 -51 c7 -29 15 -68 19 -88z"/>
<path d="M8280 1330 l0 -220 45 0 45 0 0 90 0 90 39 0 c22 0 43 -6 48 -12 4
-7 10 -47 13 -88 l5 -75 42 -3 42 -3 -5 83 c-4 56 -12 91 -24 108 -17 25 -17
27 6 53 30 35 32 99 4 144 -24 40 -67 53 -177 53 l-83 0 0 -220z m190 118 c13
-25 13 -31 0 -55 -13 -23 -24 -29 -58 -31 l-42 -3 0 61 0 61 42 -3 c34 -2 45
-8 58 -30z"/>
<path d="M8597 1543 c-4 -3 -7 -19 -7 -34 0 -27 2 -28 53 -31 l52 -3 0 -183 0
-182 43 0 42 0 0 185 0 185 50 0 50 0 0 35 0 35 -138 0 c-76 0 -142 -3 -145
-7z"/>
<path d="M8930 1330 l0 -220 40 0 40 0 0 220 0 220 -40 0 -40 0 0 -220z"/>
<path d="M9157 1532 c-15 -9 -38 -37 -50 -62 -19 -38 -22 -61 -21 -150 0 -122
16 -169 66 -200 50 -32 139 -24 178 16 16 16 32 44 36 62 6 32 6 32 -34 32
-34 0 -41 -3 -46 -25 -8 -33 -46 -51 -74 -36 -27 15 -42 69 -42 156 0 87 15
141 42 156 28 15 66 -3 74 -36 5 -21 12 -25 45 -25 34 0 39 3 39 23 0 32 -36
86 -66 97 -40 15 -116 11 -147 -8z"/>
<path d="M9430 1330 l0 -220 40 0 40 0 0 95 0 95 60 0 60 0 0 -95 0 -95 40 0
40 0 0 220 0 220 -40 0 -40 0 0 -90 0 -90 -60 0 -60 0 0 90 0 90 -40 0 -40 0
0 -220z"/>
<path d="M9854 1531 c-53 -32 -69 -80 -69 -206 0 -94 4 -116 23 -152 26 -50
65 -73 122 -73 64 0 106 25 132 78 19 39 23 63 23 147 0 163 -42 225 -152 225
-29 0 -60 -7 -79 -19z m106 -51 c25 -14 40 -70 40 -155 0 -90 -15 -144 -43
-154 -64 -24 -90 29 -85 177 3 95 5 105 27 123 27 22 35 23 61 9z"/>
<path d="M10157 1543 c-4 -3 -7 -102 -7 -220 l0 -213 45 0 45 0 0 70 c0 66 18
120 39 120 4 0 24 -41 45 -91 21 -50 44 -93 51 -96 7 -2 29 -3 49 -1 l36 3
-60 129 -61 130 48 68 c26 38 54 78 62 88 13 19 11 20 -35 20 l-49 0 -62 -98
-63 -97 0 98 0 97 -38 0 c-21 0 -42 -3 -45 -7z"/>
<path d="M10497 1543 c-4 -3 -7 -102 -7 -220 l0 -213 125 0 c101 0 125 3 125
14 0 8 3 21 6 30 5 14 -6 16 -80 16 l-86 0 0 65 0 65 75 0 75 0 0 35 0 35 -75
0 -75 0 0 55 0 55 80 0 80 0 0 35 0 35 -118 0 c-65 0 -122 -3 -125 -7z"/>
<path d="M10834 1516 c-29 -29 -34 -41 -34 -80 0 -57 30 -94 115 -139 42 -23
63 -40 69 -60 26 -73 -80 -109 -107 -37 -10 26 -16 30 -49 30 -35 0 -38 -2
-38 -28 0 -59 57 -102 135 -102 96 0 149 45 147 127 0 61 -23 90 -111 137 -75
42 -92 66 -71 105 7 14 20 21 41 21 25 0 33 -6 42 -30 10 -27 16 -30 53 -30
42 0 42 1 34 28 -15 52 -23 63 -51 77 -15 8 -53 15 -85 15 -50 0 -59 -3 -90
-34z"/>
<path d="M11200 1319 l0 -40 85 3 85 3 0 -52 0 -53 -85 0 -85 0 0 -40 0 -40
220 0 220 0 0 40 0 40 -100 0 -100 0 0 50 0 49 98 3 97 3 3 38 3 37 -220 0
-221 0 0 -41z"/>
<path d="M11890 1301 c-25 -4 -55 -12 -67 -19 -71 -39 -71 -135 0 -178 40 -24
193 -27 245 -5 80 34 82 145 4 185 -34 17 -123 25 -182 17z m176 -85 c19 -27
18 -33 -12 -53 -20 -13 -48 -17 -111 -17 -70 0 -87 3 -104 20 -23 24 -17 51
15 65 12 5 61 8 109 6 75 -2 91 -5 103 -21z"/>
<path d="M5150 1247 c-14 -7 -34 -30 -44 -51 -17 -36 -18 -43 -5 -80 11 -31
26 -48 64 -73 82 -51 105 -77 105 -117 0 -43 -29 -76 -65 -76 -29 0 -75 40
-75 65 0 9 -9 15 -25 15 -29 0 -30 -8 -11 -55 36 -86 176 -85 212 2 32 75 2
138 -87 188 -62 35 -85 69 -75 109 14 56 98 58 112 1 4 -18 13 -25 30 -25 28
0 31 18 9 59 -23 45 -94 64 -145 38z"/>
<path d="M2440 1035 l0 -215 69 0 c87 0 116 11 141 52 35 57 21 142 -28 171
-11 7 -10 13 6 30 29 32 36 78 18 120 -19 48 -41 57 -130 57 l-76 0 0 -215z
m154 153 c22 -31 20 -74 -5 -99 -15 -15 -30 -19 -62 -17 l-42 3 -3 68 -3 67
50 0 c40 0 53 -4 65 -22z m3 -180 c17 -16 23 -32 23 -65 0 -60 -25 -83 -90
-83 l-50 0 0 85 0 85 47 0 c34 0 53 -6 70 -22z"/>
<path d="M2730 1035 l0 -215 100 0 c93 0 100 1 100 20 0 18 -7 20 -75 20 l-75
0 0 195 0 195 -25 0 -25 0 0 -215z"/>
<path d="M2972 1060 l3 -190 27 -26 c36 -36 110 -44 155 -15 45 28 53 68 53
259 l0 162 -25 0 -25 0 0 -175 c0 -173 0 -176 -25 -200 -32 -33 -68 -32 -94 1
-19 25 -21 40 -21 200 l0 174 -26 0 -25 0 3 -190z"/>
<path d="M3290 1035 l0 -216 102 3 c89 3 103 5 106 21 3 15 -6 17 -77 17 l-81
0 0 85 0 85 70 0 c63 0 70 2 70 20 0 18 -7 20 -70 20 l-70 0 0 70 0 70 75 0
c68 0 75 2 75 20 0 19 -7 20 -100 20 l-100 0 0 -215z"/>
<path d="M3550 1035 l0 -215 75 0 c109 0 130 13 159 104 9 28 -12 94 -37 113
l-23 16 23 23 c35 36 32 106 -6 145 -28 27 -34 29 -110 29 l-81 0 0 -215z
m154 159 c9 -9 16 -32 16 -54 0 -47 -27 -70 -82 -70 l-38 0 0 70 0 70 44 0
c27 0 51 -6 60 -16z m7 -183 c19 -15 24 -29 24 -64 0 -63 -24 -87 -87 -87
l-48 0 0 85 0 85 44 0 c28 0 52 -7 67 -19z"/>
<path d="M3850 1035 l0 -215 99 0 c90 0 99 2 104 20 5 19 0 20 -79 20 l-85 0
3 83 3 82 73 3 c64 3 72 5 72 22 0 18 -7 20 -75 20 l-76 0 3 68 3 67 78 3 c69
3 77 5 77 22 0 19 -7 20 -100 20 l-100 0 0 -215z"/>
<path d="M4110 1035 l0 -215 25 0 25 0 0 100 0 100 38 0 c64 0 76 -16 82 -112
5 -78 6 -83 29 -86 23 -4 23 -3 20 88 -4 79 -7 94 -25 109 l-21 17 23 28 c19
21 24 39 24 81 0 47 -3 56 -31 79 -27 23 -39 26 -110 26 l-79 0 0 -215z m146
167 c21 -14 36 -54 29 -80 -11 -45 -34 -62 -82 -62 l-43 0 0 75 0 75 43 0 c23
0 47 -4 53 -8z"/>
<path d="M4405 1035 l0 -215 23 0 c21 0 22 3 22 100 l0 100 39 0 c23 0 48 -8
62 -19 21 -17 24 -30 27 -100 4 -78 5 -81 28 -81 21 0 24 5 24 38 0 76 -13
141 -32 161 -18 20 -18 21 2 41 41 41 39 129 -5 168 -23 19 -37 22 -108 22
l-82 0 0 -215z m159 153 c22 -31 20 -84 -4 -108 -14 -14 -33 -20 -65 -20 l-45
0 0 75 0 75 49 0 c40 0 53 -4 65 -22z"/>
<path d="M4700 1035 l0 -215 25 0 25 0 0 215 0 215 -25 0 -25 0 0 -215z"/>
<path d="M4830 1035 l0 -215 105 0 c98 0 105 1 105 20 0 18 -7 20 -80 20 l-80
0 0 85 0 85 75 0 c68 0 75 2 75 20 0 18 -7 20 -75 20 l-75 0 0 70 0 70 75 0
c68 0 75 2 75 20 0 19 -7 20 -100 20 l-100 0 0 -215z"/>
<path d="M7680 1141 l0 -91 -75 0 -75 0 0 85 0 85 -40 0 -40 0 0 -85 0 -85
-60 0 -60 0 0 85 0 85 -40 0 -40 0 0 -130 0 -130 255 0 256 0 -3 133 -3 132
-37 3 -38 3 0 -90z"/>
<path d="M9798 934 c-15 -8 -35 -29 -45 -47 -21 -40 -29 -186 -14 -244 21 -78
102 -117 161 -76 17 12 25 13 28 5 2 -7 15 -12 28 -12 24 0 24 1 24 100 0 55
1 103 3 108 1 4 -26 8 -60 10 l-63 3 0 -31 c0 -25 4 -30 25 -30 22 0 25 -4 25
-39 0 -69 -54 -95 -87 -44 -25 38 -25 189 1 227 22 34 66 33 81 -1 7 -17 18
-23 42 -23 29 0 33 3 33 26 0 15 -12 38 -29 55 -25 24 -37 29 -78 29 -26 -1
-60 -7 -75 -16z"/>
<path d="M10050 756 l0 -196 35 0 35 0 0 80 0 80 34 0 c45 0 54 -14 58 -90 l3
-65 36 -3 36 -3 -4 73 c-3 47 -11 82 -22 98 -17 24 -17 26 1 40 13 10 22 32
25 61 5 41 2 50 -24 79 -29 33 -33 34 -122 38 l-91 4 0 -196z m157 108 c15
-24 15 -29 2 -53 -11 -19 -24 -27 -52 -29 l-37 -3 0 55 0 56 35 0 c26 0 39 -6
52 -26z"/>
<path d="M10350 755 l0 -195 105 0 105 0 0 30 0 30 -70 0 -70 0 0 55 0 55 65
0 65 0 0 30 0 30 -65 0 -65 0 0 50 0 50 68 0 c67 0 68 0 66 28 l-1 27 -101 3
-102 3 0 -196z"/>
<path d="M10610 755 l0 -195 104 0 c99 0 104 1 110 23 3 12 6 25 6 30 0 4 -34
7 -75 7 l-75 0 0 55 0 55 65 0 65 0 0 30 0 30 -65 0 -65 0 0 50 0 50 70 0 70
0 0 30 0 30 -105 0 -105 0 0 -195z"/>
<path d="M10877 943 c-4 -3 -7 -91 -7 -195 l0 -188 35 0 34 0 3 133 3 132 49
-132 49 -133 38 0 39 0 0 185 c0 102 1 188 3 193 1 4 -13 8 -30 10 l-33 3 0
-133 -1 -133 -51 133 -52 132 -36 0 c-20 0 -40 -3 -43 -7z"/>
<path d="M11280 920 c0 -28 2 -30 40 -30 l40 0 0 -165 0 -165 40 0 40 0 0 165
0 165 40 0 c38 0 40 2 40 30 l0 30 -120 0 -120 0 0 -30z"/>
<path d="M11567 943 c-4 -3 -7 -91 -7 -195 l0 -188 110 0 110 0 0 30 0 30 -70
0 -70 0 0 55 0 55 65 0 65 0 0 30 0 30 -65 0 -65 0 0 50 0 50 65 0 65 0 0 30
0 30 -98 0 c-54 0 -102 -3 -105 -7z"/>
<path d="M11905 938 c-3 -7 -23 -89 -45 -183 -23 -93 -43 -176 -45 -182 -3 -9
8 -13 34 -13 37 0 38 1 47 48 l9 47 47 3 c45 3 46 2 53 -30 13 -66 15 -68 51
-68 24 0 34 5 34 16 0 8 -16 79 -36 157 -61 244 -48 217 -100 217 -27 0 -46
-5 -49 -12z m52 -216 c-16 -2 -31 -1 -33 1 -3 2 0 26 6 53 22 104 22 104 39
24 l16 -75 -28 -3z"/>
<path d="M7250 825 l0 -45 100 0 100 0 0 -60 0 -60 -100 0 -100 0 0 -45 0 -45
255 0 255 0 0 45 0 45 -115 0 -115 0 0 60 0 60 115 0 115 0 0 45 0 45 -255 0
-255 0 0 -45z"/>
<path d="M4030 702 c-42 -21 -62 -57 -55 -96 7 -41 30 -63 97 -97 40 -20 60
-37 64 -53 9 -39 1 -60 -29 -70 -33 -12 -57 -1 -72 32 -7 16 -19 22 -42 22
-18 0 -33 -2 -33 -4 0 -21 27 -68 47 -81 55 -37 162 -16 188 36 32 62 5 123
-71 158 -63 29 -84 49 -84 76 0 48 66 61 85 18 7 -17 18 -23 42 -23 18 0 33 4
33 10 0 25 -26 61 -55 75 -43 20 -72 19 -115 -3z"/>
<path d="M5140 702 c-42 -21 -62 -57 -55 -96 7 -41 30 -63 97 -97 40 -20 60
-37 64 -53 9 -39 1 -60 -29 -70 -33 -12 -57 -1 -72 32 -7 16 -19 22 -42 22
-18 0 -33 -2 -33 -4 0 -1 5 -17 11 -34 14 -41 52 -64 108 -65 66 -1 108 24
122 72 17 58 -10 107 -77 141 -67 33 -84 48 -84 74 0 49 58 63 86 21 11 -17
25 -25 45 -25 16 0 29 4 29 10 0 25 -26 61 -55 75 -43 20 -72 19 -115 -3z"/>
<path d="M4260 525 l0 -185 104 0 c103 0 104 0 108 25 5 25 5 25 -68 25 l-74
0 0 60 0 60 65 0 c63 0 65 1 65 25 0 24 -2 25 -65 25 l-65 0 0 50 0 50 70 0
c68 0 70 1 70 25 l0 25 -105 0 -105 0 0 -185z"/>
<path d="M4522 528 l3 -183 103 -3 c60 -2 102 1 102 7 0 5 3 16 6 25 5 14 -5
16 -70 16 l-76 0 0 60 0 60 65 0 c63 0 65 1 65 25 0 24 -2 25 -65 25 l-65 0 0
50 0 50 70 0 c68 0 70 1 70 25 l0 25 -105 0 -105 0 2 -182z"/>
<path d="M4790 525 l0 -185 66 0 c131 0 174 48 174 193 0 71 -4 89 -23 118
-31 47 -61 59 -144 59 l-73 0 0 -185z m149 116 c39 -39 39 -175 0 -225 -15
-19 -30 -26 -55 -26 l-34 0 0 135 0 135 35 0 c21 0 43 -8 54 -19z"/>
<path d="M3137 676 c-80 -30 -111 -80 -105 -172 3 -56 8 -68 37 -98 18 -18 64
-51 103 -72 87 -48 108 -73 108 -129 0 -61 -26 -90 -80 -90 -47 0 -77 27 -87
77 -5 26 -9 28 -54 28 -44 0 -49 -2 -49 -23 0 -34 41 -108 73 -131 41 -30 183
-30 223 0 47 35 67 70 72 127 8 105 -30 163 -147 221 -85 43 -104 64 -104 118
0 94 117 107 141 15 8 -30 12 -32 55 -35 43 -3 47 -1 47 20 0 38 -43 111 -76
130 -43 25 -111 31 -157 14z"/>
<path d="M2447 674 c-4 -4 -7 -146 -7 -316 l0 -308 50 0 50 0 0 140 0 140 100
0 100 0 0 40 0 40 -100 0 -100 0 0 90 0 90 111 0 110 0 -3 43 -3 42 -151 3
c-82 1 -153 -1 -157 -4z"/>
<path d="M2830 365 l0 -315 50 0 50 0 0 315 0 315 -50 0 -50 0 0 -315z"/>
<path d="M3470 678 c0 -2 -1 -144 -3 -316 l-2 -312 47 0 47 0 3 143 3 142 83
3 82 3 0 -146 0 -145 50 0 50 0 0 316 0 315 -47 -3 -48 -3 -3 -127 -3 -128
-84 0 -85 0 0 130 0 130 -45 0 c-25 0 -45 -1 -45 -2z"/>
<path d="M7335 499 c-53 -15 -88 -61 -92 -121 -8 -104 52 -160 188 -177 90
-12 219 1 261 26 52 30 72 67 72 128 0 77 -46 135 -121 150 l-33 7 0 -45 c0
-43 2 -46 35 -57 64 -21 59 -79 -10 -105 -34 -14 -68 -16 -152 -14 -127 5
-163 20 -163 68 0 33 13 46 53 56 26 7 28 11 25 49 -3 45 -13 50 -63 35z"/>
<path d="M10940 225 l0 -195 78 0 c99 0 141 20 161 77 16 46 10 84 -20 114
-20 20 -20 22 -3 40 20 22 22 85 5 118 -17 31 -51 41 -142 41 l-79 0 0 -195z
m150 125 c23 -23 24 -33 10 -61 -8 -14 -21 -19 -50 -19 l-40 0 0 43 c0 24 3
47 7 50 13 14 54 6 73 -13z m8 -152 c7 -7 12 -28 12 -48 0 -46 -15 -60 -62
-60 l-38 0 0 60 0 60 38 0 c21 0 43 -5 50 -12z"/>
<path d="M11240 226 l0 -196 35 0 35 0 0 85 0 85 29 0 c44 0 61 -23 61 -85 0
-75 6 -85 47 -85 34 0 35 1 29 31 -3 17 -6 53 -6 80 0 34 -6 55 -18 67 -18 18
-18 20 6 47 20 24 23 36 19 73 -8 72 -30 86 -142 90 l-95 4 0 -196z m134 134
c30 -11 42 -49 26 -79 -8 -16 -20 -21 -50 -21 l-40 0 0 48 c0 65 10 73 64 52z"/>
<path d="M11561 243 c-25 -98 -46 -186 -49 -196 -4 -16 1 -18 34 -15 38 3 39
4 48 50 l8 48 48 0 c47 0 49 -1 55 -32 13 -66 15 -68 51 -68 19 0 34 5 34 10
0 10 -60 266 -81 343 -10 36 -11 37 -57 37 l-48 0 -43 -177z m119 -35 c0 -13
-8 -18 -30 -18 -16 0 -30 4 -30 10 0 14 21 113 27 130 5 14 32 -84 33 -122z"/>
<path d="M11830 224 l0 -195 33 3 32 3 0 138 c0 75 1 137 1 137 1 0 25 -63 54
-140 l53 -140 38 0 39 0 0 195 0 195 -30 0 -30 0 -1 -132 0 -133 -52 132 -52
133 -42 0 -43 0 0 -196z"/>
<path d="M3950 110 l0 -111 62 3 c50 2 63 6 66 21 3 14 -4 17 -42 17 -44 0
-46 1 -46 30 0 28 2 30 40 30 54 0 56 27 3 32 -33 3 -38 6 -38 28 0 22 5 25
43 28 66 5 47 26 -26 30 l-62 3 0 -111z"/>
<path d="M4123 193 c-26 -39 -25 -144 1 -172 21 -23 65 -28 84 -9 9 9 12 9 12
0 0 -7 7 -12 15 -12 12 0 15 14 15 65 l0 65 -35 0 c-28 0 -35 -4 -35 -20 0
-11 7 -20 15 -20 8 0 15 -8 15 -19 0 -29 -26 -47 -45 -31 -23 19 -17 129 8
144 14 9 21 7 31 -6 16 -22 46 -24 46 -4 0 26 -30 46 -70 46 -32 0 -43 -5 -57
-27z"/>
<path d="M4311 194 c-24 -31 -29 -116 -9 -159 12 -27 29 -33 96 -33 l42 1 0
64 0 64 -37 -3 c-41 -3 -57 -26 -24 -35 24 -6 27 -21 8 -47 -32 -44 -69 30
-51 103 10 39 41 54 56 27 9 -16 48 -23 48 -8 0 4 -7 18 -16 30 -23 33 -86 31
-113 -4z"/>
<path d="M4480 110 c0 -103 1 -110 20 -110 17 0 20 7 20 44 0 43 0 44 40 50
42 7 60 27 60 70 0 35 -35 56 -92 56 l-48 0 0 -110z m93 58 c13 -20 -6 -48
-34 -48 -15 0 -19 7 -19 36 0 31 3 35 21 32 12 -2 27 -10 32 -20z"/>
<path d="M4650 110 l0 -110 59 0 c41 0 60 4 64 14 8 20 -2 26 -45 26 l-38 0 0
90 c0 83 -1 90 -20 90 -19 0 -20 -7 -20 -110z"/>
<path d="M4845 208 c-5 -15 -46 -178 -48 -193 -1 -5 7 -10 18 -10 12 0 21 9
25 25 5 20 12 25 35 25 23 0 30 -5 35 -25 4 -16 14 -26 28 -28 12 -2 22 0 22
3 0 4 -12 54 -27 111 -26 101 -28 104 -55 104 -16 0 -31 -6 -33 -12z m44 -95
c1 -14 -5 -23 -14 -23 -17 0 -18 4 -8 51 5 28 7 30 14 14 4 -11 8 -30 8 -42z"/>
<path d="M4982 113 c3 -92 5 -108 20 -111 15 -3 18 7 20 74 l3 77 31 -74 c23
-57 35 -75 52 -77 21 -3 22 -1 22 107 0 106 -1 111 -21 111 -19 0 -20 -5 -17
-65 1 -36 1 -65 -2 -65 -3 0 -16 28 -30 63 -22 53 -29 62 -53 65 l-28 3 3
-108z"/>
<path d="M5160 205 c0 -9 9 -15 25 -15 25 0 25 0 25 -95 0 -88 1 -95 20 -95
19 0 20 7 20 95 l0 95 30 0 c22 0 28 4 24 15 -5 11 -23 15 -75 15 -55 0 -69
-3 -69 -15z"/>
</g>
</svg>
